<svg width="73" height="80" viewBox="0 0 73 80" fill="none" xmlns="http://www.w3.org/2000/svg">
  <g filter="url(#filter0_d)">
    <path d="M23.0137 0.883817C19.4541 1.0889 15.6309 1.46975 14.752 1.68948C13.5362 1.98245 12.584 2.53909 11.6758 3.50589C10.8701 4.3555 10.2842 5.33694 9.99124 6.36233C9.80081 7.03616 9.47855 12.0166 9.22952 18.3741C8.74613 30.6201 9.27347 54.1602 10.0938 56.753C10.7383 58.8477 12.3789 60.4444 14.5176 61.0742C17.3594 61.9239 31.7735 62.4366 39.5664 61.9678C43.1114 61.7627 47.0518 61.3965 47.9014 61.2061C50.3184 60.6641 52.4131 58.5254 52.8819 56.0938C53.043 55.2442 53.2481 51.8457 53.4678 46.5869L53.5996 43.4522L52.7207 41.709C52.2373 40.7422 51.8272 39.9805 51.7832 40.0244C51.7539 40.0537 51.6514 41.6944 51.5782 43.6573C51.3731 48.6524 51.168 51.5528 50.9922 52.3877C50.3916 55.0391 48.0332 57.3389 45.3379 57.9248C43.3897 58.335 39.1416 58.6133 33.1797 58.6866C26.5733 58.7744 24.3321 58.6866 23.8926 58.3203C23.4825 57.9688 23.4239 57.3389 23.7315 56.9434L24.0098 56.6211L31.0118 56.6065C37.9112 56.5918 42.0567 56.3867 44.6055 55.9326C45.7481 55.7276 46.7588 55.2002 47.5791 54.3946C48.5606 53.4131 48.9414 52.4317 49.1026 50.5567C49.791 42.0752 49.8496 24.7022 49.2198 13.9063C49.044 10.8741 48.8535 10.0977 47.9893 8.92581C47.0225 7.60745 45.7481 6.99222 43.4483 6.74319C42.2764 6.626 42.1153 6.64065 41.9981 6.84573C41.6758 7.46097 40.3135 8.60354 39.625 8.83792C38.4385 9.24808 35.9336 9.42386 31.3633 9.42386C24.2002 9.42386 22.5596 9.10159 21.2266 7.41702L20.626 6.6553L19.8057 6.69925C18.502 6.77249 17.0225 7.12405 16.3487 7.51956C15.4405 8.06155 14.4444 9.24808 14.0782 10.2149C13.2139 12.5 12.8037 31.8799 13.3457 44.419C13.6973 52.4756 13.7852 52.9004 15.3086 54.4239C16.334 55.4492 17.3008 55.8887 18.8682 56.0352C20.8897 56.211 21.3438 56.4893 21.168 57.4121C20.9922 58.2178 20.6114 58.3496 18.9121 58.1446C16.3926 57.8662 15.045 57.2217 13.5801 55.6397C12.6719 54.6729 11.9834 53.3399 11.7637 52.1387C11.3975 50.2198 11.002 39.5117 11.002 31.4112C11.002 22.71 11.4121 12.1338 11.8223 10.4639C12.4229 7.95901 14.2686 5.93753 16.7002 5.11722C17.711 4.7803 21.0948 4.41409 21.7246 4.57522C22.0323 4.66311 22.2227 4.88284 22.501 5.48343C23.2041 6.94827 23.6436 7.08011 28.4336 7.29983C31.2168 7.41702 36.1387 7.31448 37.8086 7.08011C39.2735 6.88968 39.8008 6.53811 40.3721 5.36624C40.5332 5.04397 40.7823 4.70706 40.9141 4.61917C41.3389 4.3555 45.045 4.73636 46.2168 5.17581C48.6045 6.04007 50.4649 8.0762 50.9776 10.42C51.1241 11.0645 51.3145 13.584 51.5196 17.6856C51.5635 18.7549 51.666 19.6192 51.7246 19.5899C51.7832 19.5606 52.208 19.1944 52.6768 18.7696L53.5264 17.9932L53.4239 15.4004C53.2774 11.3428 53.043 7.60745 52.8819 6.78714C52.3985 4.31155 50.333 2.18753 47.8428 1.61624C46.9932 1.44046 43.1114 1.0889 39.4932 0.869169C36.6075 0.708036 25.9141 0.708036 23.0137 0.883817ZM36.3291 3.08108C37.1348 3.3594 37.2959 4.03323 36.71 4.60452L36.3584 4.97073H31.4366H26.5L26.0752 4.54593C25.8409 4.31155 25.6504 4.04788 25.6504 3.97464C25.6504 3.71097 26.251 3.08108 26.5733 3.02249C27.335 2.876 35.875 2.91995 36.3291 3.08108Z" fill="white"/>
    <path d="M7.28126 9.24805C7.33986 9.33594 7.32521 9.36523 7.22267 9.30664C7.01759 9.1748 6.29981 9.51172 6.417 9.70215C6.47559 9.79004 6.43165 9.80469 6.32911 9.74609C6.08009 9.58496 4.80567 10.9326 4.90821 11.2109C4.9668 11.3574 4.9375 11.3867 4.82031 11.3281C4.70313 11.2549 4.68848 11.2988 4.74707 11.4746C4.80567 11.6064 4.79102 11.6943 4.71778 11.6504C4.55664 11.5479 4.36621 12.251 4.4834 12.4414C4.54199 12.5293 4.49805 12.5879 4.42481 12.5879C4.32227 12.5879 4.26367 12.9395 4.26367 13.4668C4.26367 13.9941 4.32227 14.3457 4.42481 14.3457C4.49805 14.3457 4.52734 14.4189 4.4834 14.5068C4.33691 14.7266 4.84961 15.9717 5.02539 15.8691C5.12793 15.7959 5.14258 15.8398 5.06934 15.9424C4.87891 16.2793 6.50489 17.7148 7.07618 17.7148C7.33986 17.7148 7.36915 17.5977 7.3545 16.4258C7.3545 15.7227 7.3838 14.4189 7.42775 13.54C7.60353 10.083 7.58888 9.07227 7.3838 9.07227C7.26661 9.07227 7.22267 9.14551 7.28126 9.24805ZM5.80176 16.6895C5.94825 16.8506 6.03614 16.9824 5.99219 16.9824C5.94825 16.9824 5.80176 16.8506 5.65528 16.6895C5.50879 16.5283 5.4209 16.3965 5.46485 16.3965C5.50879 16.3965 5.65528 16.5283 5.80176 16.6895Z" fill="white"/>
    <path d="M56.0752 18.9307C55.7383 19.0332 55.5625 19.165 55.6358 19.2383C55.6944 19.3115 55.6797 19.3262 55.5772 19.2822C55.3574 19.1504 54.918 19.3115 55.0352 19.4873C55.0791 19.5605 55.0205 19.5752 54.9033 19.5312C54.4346 19.3555 52.5742 21.6992 52.8379 22.1387C52.8965 22.2266 52.8819 22.2558 52.794 22.2119C52.5889 22.0801 52.0176 24.9951 51.9297 26.6211C51.7686 29.3896 51.9004 32.9932 52.1494 33.3008C52.2373 33.4033 52.2666 33.5205 52.2227 33.5644C52.1055 33.6963 52.4717 35.5859 52.6328 35.5859C52.7061 35.5859 52.7207 35.6592 52.6768 35.7471C52.5449 35.9521 53.4971 38.9697 53.6436 38.8672C53.7168 38.8232 53.7315 38.8818 53.7022 38.9844C53.585 39.292 54.9619 42.0019 56.002 43.5107C57.5694 45.7812 57.5987 45.8252 57.291 46.1328C56.8369 46.5869 56.5293 46.7041 56.1338 46.5576C55.46 46.2939 55.3721 46.4551 55.3721 47.8467C55.3721 48.5644 55.3428 49.7656 55.2988 50.5273C55.2403 51.289 55.1817 52.5049 55.1524 53.2373C55.0205 56.0791 54.6104 57.7344 53.7022 59.1846C53.4385 59.6094 53.2481 60.0342 53.292 60.1074C53.336 60.1806 53.3213 60.1953 53.2334 60.1514C53.0869 60.0488 51.666 61.4111 51.7979 61.5283C51.8418 61.5722 51.7832 61.6162 51.6953 61.6162C51.5928 61.6162 51.1094 61.8652 50.626 62.1582C50.1426 62.4512 49.4981 62.7734 49.2051 62.8613C48.8975 62.9492 48.6485 63.0664 48.6485 63.1103C48.6485 63.1543 48.4287 63.2129 48.1651 63.2275C47.916 63.2422 46.8027 63.3594 45.7188 63.4765C44.6348 63.5937 42.9795 63.7256 42.0567 63.7695C41.1338 63.8281 40.1377 63.8867 39.8594 63.9306C39.0537 64.0478 35.9629 64.1357 32.5059 64.1357C29.8545 64.1357 29.3125 64.1797 29.3125 64.3408C29.3125 64.6191 29.6641 64.9121 29.8252 64.7656C29.8984 64.707 29.8984 64.751 29.8398 64.8389C29.708 65.0732 31.6123 66.9775 31.832 66.8457C31.9199 66.7871 31.9492 66.8164 31.8906 66.9043C31.7002 67.2119 35.2891 69.6875 35.6406 69.4824C35.7285 69.4238 35.7578 69.4385 35.7139 69.541C35.5967 69.7168 37.5742 70.5224 37.794 70.3906C37.8672 70.332 37.9551 70.376 37.9844 70.4639C38.0137 70.5664 38.2481 70.6396 38.5117 70.6543C38.7754 70.6543 38.9805 70.7275 38.9805 70.8008C38.9805 70.8594 39.1123 70.8887 39.2734 70.8447C39.4346 70.8008 39.5664 70.8301 39.5664 70.918C39.5664 71.0058 39.7275 71.0351 39.9326 71.0058C40.1231 70.9619 40.3135 70.9912 40.3281 71.0498C40.4014 71.2402 43.4922 71.5039 44.9131 71.4306C47.1104 71.3281 48.4287 71.1816 48.4727 71.0351C48.502 70.9472 48.5899 70.918 48.6631 70.9765C48.8535 71.0937 50.4063 70.7275 50.4063 70.5664C50.4063 70.4931 50.4649 70.4639 50.5381 70.5224C50.7432 70.6396 52.0176 70.2734 51.9151 70.1123C51.8711 70.0244 51.9004 70.0097 51.9883 70.0683C52.2959 70.2588 56.6319 68.3398 56.4707 68.0762C56.4268 68.0176 56.4854 67.9883 56.5879 68.0322C56.8369 68.1347 60.1621 65.8642 60.1035 65.6299C60.0889 65.5273 60.1328 65.4834 60.2061 65.542C60.499 65.7031 63.3555 62.9053 63.1944 62.6269C63.1358 62.5537 63.1797 62.539 63.2676 62.5976C63.4873 62.7295 65.4063 60.2539 65.2598 60.0195C65.2012 59.917 65.2012 59.873 65.2744 59.9316C65.4356 60.0928 66.1241 59.0527 65.9922 58.8476C65.9336 58.7451 65.9483 58.7305 66.0508 58.789C66.2705 58.9209 67.5303 56.2988 68.043 54.6435C68.4239 53.4277 68.5557 52.5928 68.6729 50.542C68.7461 49.2969 68.4678 46.5283 68.2627 46.4551C68.1895 46.4258 68.1748 46.3379 68.2188 46.2646C68.336 46.0742 67.8233 43.9355 67.6768 44.0088C67.6182 44.0527 67.6035 43.9355 67.6621 43.7598C67.7061 43.5547 67.6768 43.4814 67.5743 43.5547C67.4717 43.6133 67.4278 43.584 67.4717 43.4668C67.5889 43.1885 66.9004 41.416 66.7393 41.5478C66.6807 41.6211 66.666 41.5918 66.71 41.5039C66.8418 41.2695 66.461 40.376 66.2998 40.5224C66.2412 40.5957 66.2266 40.5664 66.2852 40.4639C66.461 40.1416 64.4834 36.5088 64.2491 36.7139C64.1905 36.7724 64.1758 36.7578 64.2198 36.6699C64.2783 36.582 64.1172 36.1426 63.8828 35.7178C63.3701 34.7656 62.418 31.9678 62.418 31.4258C62.418 31.2207 62.3741 31.0449 62.3155 31.0449C62.2422 31.0449 62.1836 30.7666 62.1836 30.415C62.169 30.0781 62.1397 29.4629 62.125 29.0674C62.0811 28.3496 62.2715 26.7383 62.5498 25.4785C62.6231 25.1123 62.6817 24.3359 62.6817 23.75C62.6817 22.9736 62.7549 22.6074 62.916 22.417C63.0479 22.2705 63.1065 22.124 63.0625 22.0654C63.0186 22.0215 63.1065 22.0215 63.2823 22.0654C63.458 22.1094 63.5899 22.0801 63.5899 21.9775C63.5899 21.8896 63.5313 21.8164 63.458 21.8164C63.3848 21.8164 63.253 21.5967 63.1504 21.333C63.0479 21.084 62.7989 20.6592 62.6231 20.4101C62.4326 20.1611 62.3301 19.9121 62.3741 19.8535C62.4326 19.8096 62.3594 19.7656 62.2276 19.7656C62.0957 19.7656 61.9639 19.8242 61.9199 19.8974C61.876 19.9707 61.6416 20.0586 61.4073 20.0879C61.1582 20.1172 60.9971 20.1172 61.0264 20.0586C61.1143 19.9121 60.0889 19.2822 59.2979 19.0185C58.4336 18.7109 56.9102 18.6816 56.0752 18.9307Z" fill="white"/>
    <path d="M5.71381 28.0859C5.14252 28.6865 4.82026 29.1699 4.62983 29.7119C4.27827 30.7666 4.38081 32.2021 4.84955 33.1396C5.20111 33.8281 6.44622 35.1465 6.75384 35.1465C6.85638 35.1465 6.90032 33.8428 6.90032 31.1914C6.90032 28.2178 6.85638 27.2363 6.72454 27.2363C6.622 27.2363 6.18255 27.6172 5.71381 28.0859Z" fill="white"/>
    <path d="M5.90436 39.0136C4.95221 39.9072 4.51276 40.83 4.43951 42.0605C4.36627 43.3642 4.68854 44.3017 5.53814 45.2538C6.15338 45.9423 6.98834 46.5283 7.13482 46.3818C7.17877 46.3525 7.16412 44.5361 7.10553 42.3388C7.01763 39.1015 6.95904 38.3691 6.79791 38.3691C6.68072 38.3691 6.28521 38.6621 5.90436 39.0136Z" fill="white"/>
  </g>
  <defs>
    <filter id="filter0_d" x="0.263672" y="0.750092" width="72.4212" height="78.6931" filterUnits="userSpaceOnUse" color-interpolation-filters="sRGB">
      <feFlood flood-opacity="0" result="BackgroundImageFix"/>
      <feColorMatrix in="SourceAlpha" type="matrix" values="0 0 0 0 0 0 0 0 0 0 0 0 0 0 0 0 0 0 127 0"/>
      <feOffset dy="4"/>
      <feGaussianBlur stdDeviation="2"/>
      <feColorMatrix type="matrix" values="0 0 0 0 0 0 0 0 0 0 0 0 0 0 0 0 0 0 0.25 0"/>
      <feBlend mode="normal" in2="BackgroundImageFix" result="effect1_dropShadow"/>
      <feBlend mode="normal" in="SourceGraphic" in2="effect1_dropShadow" result="shape"/>
    </filter>
  </defs>
</svg>
