<svg width="56" height="79" viewBox="0 0 56 79" fill="none" xmlns="http://www.w3.org/2000/svg">
  <g filter="url(#filter0_d)">
    <path d="M26.0292 0.224221C20.4534 0.818362 15.1062 3.3625 11.1757 7.29297C4.68585 13.7828 2.4464 23.2129 5.31046 32.0488C5.87414 33.816 7.50421 37 8.69249 38.6758C9.3171 39.5441 10.7034 41.0828 12.1812 42.5605C14.6644 45.0285 15.3042 45.8816 16.0202 47.6641C16.462 48.7609 16.8124 50.4215 16.8124 51.4879C16.8124 51.9602 16.9191 52.6762 17.0409 53.0875C17.2085 53.6512 17.2694 54.6566 17.2694 57.1246C17.2694 60.8113 17.3913 61.5273 18.2292 62.6242C18.5034 62.9898 19.0366 63.4773 19.4175 63.7363L20.1183 64.1934L20.1944 65.793C20.2402 67.0727 20.3316 67.5297 20.5905 68.0477C21.1237 69.0531 21.9312 69.8605 22.8757 70.3176L23.7441 70.7441H27.7812H31.8183L32.6866 70.3176C33.6312 69.8605 34.4386 69.0531 34.9718 68.0477C35.2308 67.5297 35.3222 67.0727 35.3679 65.793L35.4441 64.1934L36.1448 63.7363C36.5257 63.4773 37.0589 62.9898 37.3331 62.6242C38.171 61.5273 38.2929 60.8113 38.2929 57.1246C38.2929 54.6566 38.3538 53.6512 38.5214 53.0875C38.6433 52.6762 38.7499 51.9602 38.7499 51.4879C38.7499 50.4215 39.1003 48.7609 39.5421 47.6641C40.2581 45.8816 40.898 45.0285 43.3812 42.5605C47.403 38.5539 49.4444 35.2328 50.6327 30.693C51.2726 28.225 51.4554 26.8387 51.4401 24.2031C51.4401 21.659 51.2116 19.9832 50.5413 17.698C48.0124 8.96875 40.6999 2.31133 31.7116 0.574612C30.2034 0.285159 27.2175 0.102346 26.0292 0.224221ZM28.4667 6.45508C29.4569 6.92735 29.6702 8.22227 28.8933 8.99922C28.4972 9.39531 28.3144 9.44102 26.9433 9.56289C23.4241 9.88281 20.7124 11.1473 18.3968 13.5695C16.2183 15.8242 15.0909 18.3988 14.8319 21.659C14.7253 23.0148 14.6644 23.2129 14.2835 23.609C13.4456 24.4773 11.8155 24.0051 11.5718 22.8168C11.5261 22.5578 11.5566 21.7199 11.6327 20.943C12.0745 17.0277 13.7351 13.5695 16.4773 10.9188C19.4327 8.06992 23.3175 6.40938 27.446 6.2418C27.7355 6.2418 28.1925 6.33321 28.4667 6.45508ZM35.0937 58.45V60.3391L34.5757 60.857L34.0577 61.375H27.7812H21.5046L20.9866 60.857L20.4687 60.3391V58.45V56.5762H27.7812H35.0937V58.45ZM32.1991 65.6559C32.1991 66.509 32.1534 66.6309 31.6812 67.1031L31.1632 67.6211H27.7812H24.3991L23.8812 67.1031C23.4089 66.6309 23.3632 66.509 23.3632 65.6559V64.7266H27.7812H32.1991V65.6559Z" fill="white"/>
  </g>
  <defs>
    <filter id="filter0_d" x="0.0854492" y="0.185913" width="55.3556" height="78.5582" filterUnits="userSpaceOnUse" color-interpolation-filters="sRGB">
      <feFlood flood-opacity="0" result="BackgroundImageFix"/>
      <feColorMatrix in="SourceAlpha" type="matrix" values="0 0 0 0 0 0 0 0 0 0 0 0 0 0 0 0 0 0 127 0"/>
      <feOffset dy="4"/>
      <feGaussianBlur stdDeviation="2"/>
      <feColorMatrix type="matrix" values="0 0 0 0 0 0 0 0 0 0 0 0 0 0 0 0 0 0 0.25 0"/>
      <feBlend mode="normal" in2="BackgroundImageFix" result="effect1_dropShadow"/>
      <feBlend mode="normal" in="SourceGraphic" in2="effect1_dropShadow" result="shape"/>
    </filter>
  </defs>
</svg>
