<svg width="294" height="311" viewBox="0 0 294 311" fill="none" xmlns="http://www.w3.org/2000/svg">
  <g filter="url(#filter0_d)">
    <path d="M168.461 100.448C176.107 91.0697 178.494 77.9027 173.545 65.9377C166.368 48.5857 146.484 40.3377 129.131 47.5167C116.319 52.8157 108.48 65.0437 108.139 78.0637L48.3772 69.2437L19.1662 45.1967C17.7042 43.9937 15.7082 43.6707 13.9402 44.3507C12.1732 45.0317 10.9112 46.6107 10.6342 48.4837L4.05619 93.0567C3.78019 94.9297 4.53419 96.8067 6.02819 97.9687C7.52319 99.1307 9.52818 99.3987 11.2752 98.6677L46.1882 84.0837L66.3532 87.0607C45.9522 104.179 37.8372 132.264 46.2122 157.726C48.2142 163.812 54.0632 167.759 60.4562 167.353L141.008 162.241L144.675 284.145C144.855 290.129 148.805 295.338 154.518 297.133C206.531 313.468 263.051 290.088 288.325 241.783C291.099 236.481 290.214 229.997 286.117 225.637L168.461 100.448ZM92.9382 90.9837L111.517 93.7257C116.915 104.921 127.778 111.919 139.522 112.832L139.964 127.552L92.9382 90.9837Z" fill="white"/>
    <path d="M124.843 31.299C131.523 35.582 140.728 39.244 150.761 41.612C158.193 43.365 165.596 44.292 172.172 44.292C191.433 44.292 196.123 36.602 197.204 32.018C198.303 27.362 197.226 20.281 185.862 12.994C179.181 8.711 169.977 5.049 159.943 2.681C152.513 0.927 145.109 0 138.533 0C119.271 0 114.582 7.69 113.501 12.274C112.403 16.931 113.479 24.012 124.843 31.299ZM138.533 15C143.967 15 150.179 15.788 156.5 17.279C169.695 20.391 178.101 25.241 181.281 28.231C179.538 28.757 176.599 29.291 172.172 29.291C166.738 29.291 160.525 28.503 154.204 27.012C141.01 23.9 132.604 19.05 129.424 16.06C131.167 15.533 134.106 15 138.533 15Z" fill="white"/>
  </g>
  <defs>
    <filter id="filter0_d" x="0" y="0" width="293.928" height="310.308" filterUnits="userSpaceOnUse" color-interpolation-filters="sRGB">
      <feFlood flood-opacity="0" result="BackgroundImageFix"/>
      <feColorMatrix in="SourceAlpha" type="matrix" values="0 0 0 0 0 0 0 0 0 0 0 0 0 0 0 0 0 0 127 0"/>
      <feOffset dy="4"/>
      <feGaussianBlur stdDeviation="2"/>
      <feColorMatrix type="matrix" values="0 0 0 0 0 0 0 0 0 0 0 0 0 0 0 0 0 0 0.25 0"/>
      <feBlend mode="normal" in2="BackgroundImageFix" result="effect1_dropShadow"/>
      <feBlend mode="normal" in="SourceGraphic" in2="effect1_dropShadow" result="shape"/>
    </filter>
  </defs>
</svg>
