<svg width="118" height="115" viewBox="0 0 118 115" fill="none" xmlns="http://www.w3.org/2000/svg">
<g clip-path="url(#clip0)" filter="url(#filter0_d)">
<path d="M87.0316 60.7071C84.3459 60.7071 82.1079 62.9451 82.1079 65.6308V101.104C82.1079 103.79 84.3459 106.028 87.0316 106.028C89.7173 106.028 91.9553 103.79 91.9553 101.104V65.7427C92.0672 62.9451 89.8292 60.7071 87.0316 60.7071Z" fill="white"/>
<path d="M113.664 63.1689C113.664 56.6786 112.545 50.3002 110.307 44.3693C108.405 39.1099 105.607 34.0743 102.138 29.5982C102.586 28.5911 102.922 27.4721 102.922 26.465C102.922 24.5626 102.25 22.7722 100.796 21.3175C95.0885 15.6104 88.5982 11.3581 81.5483 8.44869C74.2747 5.42733 66.5534 3.9726 58.8321 3.9726C51.1109 3.9726 43.3896 5.42733 36.116 8.44869C29.0661 11.3581 22.5758 15.6104 16.8688 21.3175C15.414 22.7722 14.7426 24.5626 14.7426 26.465C14.7426 27.584 14.9664 28.5911 15.5259 29.5982C12.057 34.0743 9.25941 39.1099 7.35707 44.3693C5.23093 50.3002 4 56.6786 4 63.1689V83.4233C4 88.4589 6.01424 93.0469 9.37131 96.4039C12.057 99.0896 15.5259 100.88 19.4425 101.551V65.407V65.2951C15.6378 65.8546 12.2808 67.645 9.70702 70.1069V63.057C9.70702 57.2381 10.7141 51.5311 12.7284 46.1598C14.4069 41.4599 16.8688 37.0957 19.8901 33.1791C20.6734 33.4029 21.4568 33.5148 22.2401 33.5148C24.0305 33.5148 25.821 32.8434 27.1638 31.6125C27.2757 31.5006 27.2757 31.5006 27.3876 31.3887C31.6399 27.1364 36.5636 23.8912 41.823 21.6532C47.3062 19.4151 53.1251 18.2961 58.944 18.2961C64.763 18.2961 70.5819 19.4151 76.0651 21.6532C81.3245 23.7793 86.2482 27.0245 90.5005 31.3887L90.6124 31.5006C92.0671 32.8434 93.8576 33.6267 95.7599 33.6267C96.5432 33.6267 97.3265 33.5148 98.1099 33.291C101.131 37.2076 103.481 41.6837 105.272 46.2717C107.174 51.643 108.293 57.35 108.293 63.1689V70.2188C105.607 67.7569 102.25 65.9665 98.5575 65.407V65.5189V101.551C102.474 100.992 105.943 99.0896 108.629 96.4039C111.986 93.0469 114 88.5708 114 83.4233V63.1689H113.664V63.1689Z" fill="white"/>
<path d="M30.6328 60.7071C27.9472 60.7071 25.7091 62.9451 25.7091 65.6308V101.104C25.7091 103.79 27.9472 106.028 30.6328 106.028C33.3185 106.028 35.5565 103.79 35.5565 101.104V65.7427C35.5565 62.9451 33.3185 60.7071 30.6328 60.7071Z" fill="white"/>
</g>
<defs>
<filter id="filter0_d" x="0" y="0" width="118" height="118" filterUnits="userSpaceOnUse" color-interpolation-filters="sRGB">
<feFlood flood-opacity="0" result="BackgroundImageFix"/>
<feColorMatrix in="SourceAlpha" type="matrix" values="0 0 0 0 0 0 0 0 0 0 0 0 0 0 0 0 0 0 127 0"/>
<feOffset dy="4"/>
<feGaussianBlur stdDeviation="2"/>
<feColorMatrix type="matrix" values="0 0 0 0 0 0 0 0 0 0 0 0 0 0 0 0 0 0 0.25 0"/>
<feBlend mode="normal" in2="BackgroundImageFix" result="effect1_dropShadow"/>
<feBlend mode="normal" in="SourceGraphic" in2="effect1_dropShadow" result="shape"/>
</filter>
<clipPath id="clip0">
<rect width="110" height="110" fill="white" transform="translate(4)"/>
</clipPath>
</defs>
</svg>
