<svg width="208" height="200" viewBox="0 0 208 200" fill="none" xmlns="http://www.w3.org/2000/svg">
  <g filter="url(#filter0_d)">
    <path d="M103.996 3.31018C48.7688 3.31018 4 41.846 4 89.3917C4 113.499 15.5434 135.263 34.0878 150.894C30.0215 173.799 3.78146 183.083 5.58439 189.392C27.7502 198.333 72.1522 178.647 82.9932 173.54C89.7756 174.788 96.7922 175.481 103.996 175.481C159.223 175.481 204 136.945 204 89.3917C204 41.8384 159.223 3.31018 103.996 3.31018ZM96.9093 92.9759C96.9093 116.384 86.2868 129.518 65.3541 132.006C65.3073 132.014 65.2761 132.014 65.2293 132.014C65.0029 132.014 64.7532 131.93 64.5893 131.778C64.3785 131.603 64.2537 131.337 64.2537 131.063V119.169C64.2537 118.819 64.4488 118.499 64.7532 118.339C74.2985 113.264 79.0673 105.273 79.3093 93.9348H65.2293C64.6985 93.9348 64.2537 93.5086 64.2537 92.9835V63.0544C64.2537 62.5293 64.6985 62.1032 65.2293 62.1032H95.9337C96.4644 62.1032 96.9093 62.5293 96.9093 63.0544V92.9759ZM151.27 92.9759C151.27 116.026 141.865 127.699 119.793 131.999C119.731 132.006 119.668 132.014 119.606 132.014C119.38 132.014 119.161 131.938 118.981 131.801C118.755 131.626 118.63 131.344 118.63 131.063V119.169C118.63 118.819 118.825 118.499 119.13 118.339C128.675 113.264 133.444 105.273 133.686 93.9348H119.606C119.075 93.9348 118.63 93.5086 118.63 92.9835V63.0544C118.63 62.5293 119.075 62.1032 119.606 62.1032H150.295C150.841 62.1032 151.27 62.5293 151.27 63.0544V92.9759Z" fill="white"/>
  </g>
  <defs>
    <filter id="filter0_d" x="0" y="0" width="208" height="203" filterUnits="userSpaceOnUse" color-interpolation-filters="sRGB">
      <feFlood flood-opacity="0" result="BackgroundImageFix"/>
      <feColorMatrix in="SourceAlpha" type="matrix" values="0 0 0 0 0 0 0 0 0 0 0 0 0 0 0 0 0 0 127 0"/>
      <feOffset dy="4"/>
      <feGaussianBlur stdDeviation="2"/>
      <feColorMatrix type="matrix" values="0 0 0 0 0 0 0 0 0 0 0 0 0 0 0 0 0 0 0.25 0"/>
      <feBlend mode="normal" in2="BackgroundImageFix" result="effect1_dropShadow"/>
      <feBlend mode="normal" in="SourceGraphic" in2="effect1_dropShadow" result="shape"/>
    </filter>
  </defs>
</svg>
