<svg width="149" height="149" viewBox="0 0 149 149" fill="none" xmlns="http://www.w3.org/2000/svg">
  <g filter="url(#filter0_d)">
    <path d="M69.0712 0.176299C52.3574 1.38386 36.467 8.68414 24.5286 20.6226C18.875 26.2487 14.5936 32.2865 11.0533 39.5593C6.16813 49.5766 4 58.9627 4 70.1601C4 81.385 6.19557 90.7985 11.0533 100.761C14.6485 108.116 18.875 114.044 24.5286 119.698C43.8222 138.991 72.2548 145.331 97.9704 136.11C99.5348 135.561 102.746 134.134 105.106 132.953C119.213 125.982 130.108 115.005 137.079 100.761C141.937 90.7985 144.132 81.385 144.132 70.1601C144.132 58.9353 141.937 49.5217 137.079 39.5593C130.026 25.1509 119.075 14.2005 104.667 7.14724C93.5793 1.7132 81.2567 -0.701929 69.0712 0.176299ZM48.2956 26.9623C51.6988 27.9503 52.3574 28.5266 63.5274 39.6142L74.1485 50.1804L84.8793 39.477C96.0768 28.307 96.4884 27.9503 99.8367 26.9623C101.95 26.331 105.682 26.3859 107.878 27.072C111.034 28.0326 113.916 30.3105 115.755 33.2471C118.334 37.3638 118.389 43.429 115.864 47.7104C115.425 48.424 110.54 53.5836 104.749 59.4567C99.0408 65.1926 94.3752 69.9954 94.3752 70.1327C94.3752 70.2424 99.0408 75.0453 104.749 80.7537C115.672 91.759 116.221 92.3903 117.264 95.9306C118.279 99.3612 117.621 104.109 115.755 107.073C111.748 113.495 103.844 115.663 96.9824 112.233C95.967 111.711 92.8932 108.83 84.9068 100.871L74.2034 90.1947L63.6372 100.706C52.4672 111.794 51.8086 112.315 48.2956 113.358C46.155 113.989 42.4499 113.934 40.2544 113.248C35.9181 111.931 32.2954 108.281 30.9781 103.944C30.292 101.776 30.2371 98.0439 30.8683 95.9306C31.8563 92.5824 32.2131 92.1707 43.4105 80.9459L54.1688 70.1601L43.4105 59.4018C32.2131 48.1495 31.8563 47.7378 30.8683 44.3896C30.2371 42.2764 30.292 38.5439 30.9781 36.3483C32.2954 32.0395 35.8907 28.4443 40.2544 27.0446C42.2853 26.4134 46.2373 26.3585 48.2956 26.9623Z" fill="white"/>
    <path d="M42.7793 31.4906C38.2783 32.3688 35.2869 36.0464 35.3143 40.712C35.3143 44.417 35.2869 44.3896 48.131 57.2611C54.3883 63.5185 59.6303 68.98 59.7675 69.3916C59.9596 69.9131 59.9596 70.4071 59.7675 70.9011C59.6303 71.3402 54.3883 76.8017 48.1584 83.0591C40.8856 90.3593 36.6042 94.8603 36.22 95.6013C34.5184 99.0318 35.2045 103.505 37.8941 106.167C39.7878 108.089 41.3521 108.692 44.2887 108.72C48.625 108.72 47.9389 109.241 61.0299 96.205C67.3697 89.8928 72.886 84.596 73.3251 84.4587C73.8191 84.2666 74.3131 84.2666 74.8346 84.4587C75.2463 84.596 80.7077 89.8379 86.9651 96.0953C99.5348 108.637 99.4524 108.555 103.048 108.802C105.518 108.967 107.494 108.39 109.333 106.991C112.736 104.411 113.861 99.4984 111.94 95.6287C111.528 94.8328 107.576 90.6612 99.9739 83.0591C93.7439 76.8017 88.502 71.3402 88.3648 70.9011C88.1727 70.4071 88.1727 69.9131 88.3648 69.3916C88.502 68.98 93.7439 63.5185 99.9739 57.2611C107.576 49.6589 111.528 45.4874 111.94 44.6915C115.014 38.489 110.513 31.3808 103.514 31.4083C99.8092 31.4083 99.8641 31.3808 86.8279 44.3896L75.2737 55.8889H74.0661H72.8586L61.3044 44.3896C51.4518 34.537 49.5581 32.7531 48.2682 32.2042C46.5117 31.4083 44.5083 31.1613 42.7793 31.4906Z" fill="white"/>
  </g>
  <defs>
    <filter id="filter0_d" x="0" y="0" width="148.132" height="148.278" filterUnits="userSpaceOnUse" color-interpolation-filters="sRGB">
      <feFlood flood-opacity="0" result="BackgroundImageFix"/>
      <feColorMatrix in="SourceAlpha" type="matrix" values="0 0 0 0 0 0 0 0 0 0 0 0 0 0 0 0 0 0 127 0"/>
      <feOffset dy="4"/>
      <feGaussianBlur stdDeviation="2"/>
      <feColorMatrix type="matrix" values="0 0 0 0 0 0 0 0 0 0 0 0 0 0 0 0 0 0 0.25 0"/>
      <feBlend mode="normal" in2="BackgroundImageFix" result="effect1_dropShadow"/>
      <feBlend mode="normal" in="SourceGraphic" in2="effect1_dropShadow" result="shape"/>
    </filter>
  </defs>
</svg>
