<svg width="208" height="209" viewBox="0 0 208 209" fill="none" xmlns="http://www.w3.org/2000/svg">
  <g filter="url(#filter0_d)">
    <path d="M33.6792 1.74315C19.1344 5.6981 7.53223 18.0679 4.84186 32.373C3.66483 38.7683 3.7489 162.634 4.92594 169.282C7.02779 180.978 15.267 191.581 26.617 197.219L32.9226 200.332L102.284 200.585C178.118 200.837 175.68 200.921 185.012 195.873C190.561 192.927 197.455 185.186 200.902 178.286L203.677 172.564L203.929 102.721C204.097 34.645 204.097 32.7096 202.416 27.4083C199.137 16.8898 190.057 7.29691 179.127 2.83707L174.251 0.901667L106.151 0.733371C49.4851 0.565075 37.2944 0.733371 33.6792 1.74315ZM165.003 48.6977C166.684 50.0441 167.357 51.6429 167.693 54.4198L168.113 58.2064L136.418 97.3353C118.93 118.793 103.208 137.895 101.443 139.746C98.6684 142.607 97.6595 143.112 94.801 143.028C92.9513 142.943 90.8495 142.354 90.0928 141.765C89.3362 141.092 80.6765 130.742 70.924 118.709C61.2555 106.676 51.587 94.8108 49.6533 92.3705C46.7107 88.7522 46.0381 87.3217 46.0381 84.5448C46.0381 77.4763 54.6977 73.4372 59.7421 78.0654C60.9192 79.1593 69.0743 89.0046 77.9021 99.9439C86.7299 110.883 94.2965 120.055 94.6328 120.308C94.9691 120.476 108.421 104.404 124.563 84.4606C140.789 64.6017 154.578 48.0245 155.25 47.6038C157.772 46.0891 162.733 46.6782 165.003 48.6977Z" fill="white"/>
  </g>
  <defs>
    <filter id="filter0_d" x="0" y="0.676514" width="208" height="208" filterUnits="userSpaceOnUse" color-interpolation-filters="sRGB">
      <feFlood flood-opacity="0" result="BackgroundImageFix"/>
      <feColorMatrix in="SourceAlpha" type="matrix" values="0 0 0 0 0 0 0 0 0 0 0 0 0 0 0 0 0 0 127 0"/>
      <feOffset dy="4"/>
      <feGaussianBlur stdDeviation="2"/>
      <feColorMatrix type="matrix" values="0 0 0 0 0 0 0 0 0 0 0 0 0 0 0 0 0 0 0.25 0"/>
      <feBlend mode="normal" in2="BackgroundImageFix" result="effect1_dropShadow"/>
      <feBlend mode="normal" in="SourceGraphic" in2="effect1_dropShadow" result="shape"/>
    </filter>
  </defs>
</svg>
