<svg width="512" height="512" viewBox="0 0 512 512" fill="none" xmlns="http://www.w3.org/2000/svg">
  <g filter="url(#filter0_d)">
    <path d="M250.5 10.5C248.3 12.6 248 13.8 248 19.5C248 25.1 247.7 26 246.2 26C242.2 26 232 29.3 224.4 33C218.8 35.7 213.8 39.2 208.6 44.1L201.1 51.1L192.3 49C181 46.1 163.9 46.5 154.6 49.9C151.3 51 148.4 52 148.1 52C147.7 52 146.1 49.8 144.5 47C140.2 39.6 134.7 38.2 130 43.3C127.3 46.2 127.5 49.6 130.8 55.2L133.6 59.9L125.4 68.3C116.1 77.9 110.8 87.3 108 99.2L106.3 106.4L100.1 107.6C96.5999 108.3 89.8999 110.8 85.1999 113.1C78.3999 116.4 74.7999 119 68.1999 125.4L59.9999 133.6L55.1999 130.8C49.5999 127.5 46.1999 127.3 43.2999 130C38.1999 134.7 39.5999 140.2 46.9999 144.5C49.7999 146.1 51.9999 147.7 51.9999 148.1C51.9999 148.4 50.9999 151.3 49.7999 154.6C46.6999 162.8 46.5999 186.5 49.5999 195.3L51.4999 201L44.2999 208.5C39.0999 213.8 35.9999 218.2 33.0999 224.2C29.2999 232 25.9999 242.2 25.9999 246.2C25.9999 247.7 25.0999 248 19.4999 248C13.7999 248 12.5999 248.3 10.4999 250.5C7.1999 253.7 7.1999 258.3 10.4999 261.5C12.5999 263.7 13.7999 264 19.4999 264C25.0999 264 25.9999 264.3 25.9999 265.8C25.9999 269.8 29.2999 280 33.0999 287.8C35.9999 293.8 39.0999 298.2 44.2999 303.5L51.4999 311L49.5999 316.7C46.5999 325.5 46.6999 349.2 49.7999 357.4C50.9999 360.7 51.9999 363.6 51.9999 363.9C51.9999 364.3 49.7999 365.9 46.9999 367.5C39.5999 371.8 38.1999 377.3 43.2999 382C46.1999 384.7 49.5999 384.5 55.1999 381.2L59.8999 378.4L68.1999 386.5C77.6999 395.7 87.4999 401.2 99.0999 404L106.4 405.7L107.6 411.9C109.9 423 116.1 434.1 125.4 443.6L133.6 452.1L130.8 456.8C127.5 462.4 127.3 465.8 130 468.7C134.7 473.8 140.2 472.4 144.5 465C146.1 462.2 147.7 460 148.1 460C148.4 460 151.3 461 154.6 462.2C159.7 464.1 162.6 464.4 175 464.4C187.2 464.5 190.4 464.1 195.2 462.4L200.9 460.4L208.4 467.6C213.8 472.8 218.2 476 224.2 478.9C232 482.7 242.2 486 246.2 486C247.7 486 248 486.9 248 492.5C248 498.2 248.3 499.4 250.5 501.5C253.7 504.8 258.3 504.8 261.5 501.5C263.7 499.4 264 498.2 264 492.5C264 486.9 264.3 486 265.8 486C269.8 486 280 482.7 287.6 479C293.2 476.3 298.2 472.8 303.5 467.8L311.1 460.7L316.6 462.4C328.9 466.3 345.9 466.1 358.2 461.9C364.9 459.7 364.3 459.4 368.2 466.2C371.7 472.4 377.6 473.5 382 468.7C384.7 465.8 384.5 462.4 381.2 456.8L378.4 452.1L386.6 443.7C395.9 434.1 401.2 424.7 404 412.8L405.7 405.6L411.9 404.4C423 402.1 434.1 395.9 443.6 386.6L452.1 378.4L456.8 381.2C462.4 384.5 465.8 384.7 468.7 382C473.8 377.3 472.4 371.8 465 367.5C462.2 365.9 460 364.3 460 363.9C460 363.6 461 360.7 462.2 357.4C464.1 352.3 464.4 349.4 464.4 337C464.5 324.8 464.1 321.6 462.4 316.8L460.4 311.1L467.6 303.6C472.8 298.2 476 293.8 478.9 287.8C482.7 280 486 269.8 486 265.8C486 264.3 486.9 264 492.5 264C498.2 264 499.4 263.7 501.5 261.5C504.8 258.3 504.8 253.7 501.5 250.5C499.4 248.3 498.2 248 492.5 248C486.9 248 486 247.7 486 246.2C486 242.2 482.7 232 478.9 224.2C476 218.2 472.9 213.8 467.7 208.5L460.5 201L462.4 195.3C465.4 186.5 465.3 162.8 462.2 154.6C461 151.3 460 148.4 460 148.1C460 147.7 462.2 146.1 465 144.5C472.4 140.2 473.8 134.7 468.7 130C465.8 127.3 462.4 127.5 456.8 130.8L452.1 133.6L443.8 125.5C439.2 121 432.8 116.1 429.5 114.3C423.5 111.2 412.7 107.4 408.1 106.8C406 106.5 405.5 105.7 404.4 100.2C402.1 89 395.9 78 386.6 68.4L378.4 59.9L381.2 55.2C384.5 49.6 384.7 46.2 382 43.3C377.3 38.2 371.8 39.6 367.5 47C365.9 49.8 364.3 52 363.9 52C363.6 52 360.7 51 357.4 49.8C352.3 47.9 349.4 47.6 337 47.6C324.8 47.5 321.6 47.9 316.8 49.6L311.1 51.6L303.6 44.4C298.2 39.2 293.8 36 287.8 33.1C280 29.3 269.8 26 265.8 26C264.3 26 264 25.1 264 19.5C264 13.8 263.7 12.6 261.5 10.5C260 8.9 257.9 8 256 8C254.1 8 252 8.9 250.5 10.5ZM267.8 42.5C271.3 43.3 276.5 45.1 279.3 46.5C285.5 49.4 296 57.5 296 59.3C295.9 59.9 293.8 62.1 291.2 64C278.1 73.8 270.6 76.5 256 76.5C241.4 76.5 233.9 73.8 220.8 64C218.2 62.1 216.1 59.9 216 59.3C216 57.5 226.5 49.4 232.7 46.5C243.7 41.2 256.3 39.8 267.8 42.5ZM188.3 64.2C190.9 64.7 193 65.3 193 65.5C193 66.7 186.7 80.4 184.8 83.5C179 92.7 168.3 101.2 157.5 105.2C152.7 106.9 149.3 107.4 140 107.4C133.7 107.5 127.2 107.1 125.6 106.7C123 106 122.8 105.7 123.5 102.3C125.4 91.9 135.1 78.5 145.3 71.9C158.9 63.1 172.4 60.7 188.3 64.2ZM352 65C366.3 69.2 378.5 79.5 384.6 92.5C389 101.8 389.8 105.5 387.4 106.4C382.9 108.1 366.5 108.3 360 106.6C346.6 103.2 334.2 94.6 327.5 84C325.3 80.5 319 66.8 319 65.4C319 65.1 328.5 63.1 332.5 62.6C337.4 62.1 345.1 63 352 65ZM211.6 77.1C237.4 97.6 272.7 98.1 299 78.2C302 75.9 304.7 74.4 305.1 74.8C305.5 75.2 307 78.3 308.4 81.8C316.3 101.6 336.8 118.2 358.5 122.6C366.5 124.3 383.9 124.1 388.4 122.4C390 121.8 390.2 122 389.6 123.6C387.9 127.9 387.8 146.4 389.4 154C393.9 175.5 410.6 195.7 430.4 203.7C433.7 205.1 436.8 206.5 437.2 206.9C437.6 207.3 436 210.2 433.6 213.4C423.3 227.2 419.5 238.9 419.6 257C419.6 267.9 419.9 270.5 422.2 277.1C425.1 285.2 429.9 294.1 434.9 300.4C436.6 302.5 437.7 304.6 437.5 305C437.2 305.5 434.7 306.6 431.9 307.5C424.6 310 413 318.1 406 325.7C398.6 333.9 391.6 347.3 389.4 358C387.8 365.4 387.9 384.1 389.5 388.2C390.1 389.8 389.8 389.9 386.9 389.2C385 388.8 377.9 388.5 371 388.6C360.2 388.6 357.5 389 350.9 391.3C340.9 394.7 332.5 399.8 324.8 406.8C317.8 413.3 309.9 424.7 307.5 432C306.6 434.7 305.5 437.2 305 437.5C304.6 437.7 302.5 436.6 300.4 434.9C294.1 429.9 285.2 425.1 277.1 422.3C270.5 420 267.8 419.6 257 419.6C238.9 419.5 227.3 423.2 213.6 433.5C210.3 435.9 207.3 437.7 206.9 437.5C206.5 437.2 205.5 434.9 204.6 432.3C201.9 424.5 194.3 413.5 186.8 406.5C178.2 398.6 165.1 391.7 154 389.4C146.4 387.8 127.8 387.9 123.6 389.6C122 390.2 121.8 390 122.4 388.4C124.1 384.2 124.2 365.6 122.6 358C118.1 336.5 101.5 316.3 81.6999 308.3C78.2999 306.9 75.1999 305.5 74.7999 305.1C74.3999 304.7 76.1999 301.5 78.7999 297.9C98.1999 271.3 97.4999 237.2 77.0999 211.6C75.2999 209.4 74.2999 207.3 74.6999 206.9C75.1999 206.5 78.2999 205 81.7999 203.6C101.6 195.7 118.2 175.2 122.6 153.5C124.3 145.5 124.1 128.1 122.4 123.6C121.8 122 122 121.8 123.6 122.4C127.9 124.1 146.4 124.2 154 122.6C164.7 120.4 178.1 113.4 186.3 106C192.1 100.6 203 86.3 203 84C203 82.9 206.8 74 207.3 74C207.5 74 209.5 75.4 211.6 77.1ZM106.7 125.7C107.1 127.3 107.5 133.7 107.4 140C107.4 149.3 106.9 152.7 105.2 157.5C101.2 168.3 92.6999 179 83.4999 184.8C80.3999 186.7 66.6999 193 65.4999 193C64.3999 193 62.7999 181.3 62.7999 174.6C62.9999 151.9 76.9999 132.6 98.9999 124.4C104.4 122.4 105.9 122.7 106.7 125.7ZM419.8 127.3C437.3 135.8 449 154.8 449 174.6C449 181.6 447.5 193 446.6 193C445.3 193 431.6 186.8 428.5 184.8C419.3 179 410.8 168.3 406.8 157.5C405.1 152.7 404.6 149.3 404.6 140C404.5 133.7 404.9 127.2 405.3 125.6C406 123 406.3 122.8 409.7 123.5C411.7 123.9 416.2 125.6 419.8 127.3ZM63.9999 220.8C73.7999 233.9 76.4999 241.4 76.4999 256C76.4999 270.6 73.7999 278.1 63.9999 291.2C62.0999 293.8 59.8999 295.9 59.2999 296C57.4999 296 49.3999 285.4 46.3999 279.2C37.4999 260.4 40.1999 238.6 53.4999 221.7C55.9999 218.6 58.5999 216 59.2999 216C59.8999 216.1 62.0999 218.2 63.9999 220.8ZM458.1 221.2C471.6 238.1 474.5 259.9 465.6 278.5C462 286 454.6 296 452.7 295.9C452 295.9 449.7 293.6 447.6 290.7C430.8 268.8 430.8 243.2 447.6 221.3C449.7 218.4 452 216.1 452.7 216.1C453.3 216 455.7 218.4 458.1 221.2ZM72.6999 321.9C84.9999 327 92.6999 333.1 99.3999 343.2C105.6 352.4 107.4 358.9 107.4 372C107.5 378.3 107.1 384.8 106.7 386.4C106 389 105.7 389.2 102.3 388.5C100.3 388.1 95.5999 386.3 91.9999 384.5C74.2999 375.6 62.9999 357.3 62.7999 337.4C62.7999 330.7 64.3999 319 65.4999 319C65.5999 319 68.7999 320.3 72.6999 321.9ZM447.9 323.7C449.8 331 449.4 344.5 447.1 352C443.3 364.2 435.6 374.8 425.5 381.5C420 385.1 407.5 389.9 406.4 388.7C405.3 387.6 404.1 379.2 404.1 372C403.9 354.7 413.7 336.5 428 327.5C431.8 325.1 444.2 319.3 446.1 319.1C446.5 319 447.3 321.1 447.9 323.7ZM157.5 406.9C168.1 410.7 178.9 419.2 184.8 428.5C186.7 431.6 193 445.3 193 446.5C193 447.6 181.2 449.3 174.6 449.2C151.4 449 130.6 433.5 124 411.2C123.3 408.9 123 406.7 123.4 406.3C126.3 403.4 148.7 403.8 157.5 406.9ZM387.3 405.6C389.8 406.5 388.9 411.3 384.5 420C375.6 437.7 357.2 449 337.5 449.1C330.8 449.1 319 447.5 319 446.6C319 445.3 325.3 431.5 327.4 428.2C334.2 417.4 345.4 409.4 359.3 405.5C364.6 404 383.4 404 387.3 405.6ZM268.5 436.5C276.6 438.6 285.5 443.2 291.5 448.4C297.3 453.5 297.3 453.5 287.3 460.7C271.5 471.9 250.1 473.9 232.8 465.6C226.7 462.6 216 454.4 216.1 452.7C216.1 451 225.3 444.2 232 440.8C243.2 435.1 256.8 433.5 268.5 436.5Z" fill="white"/>
    <path d="M240 192V216H216H192V232V248H216H240V296V344H256H272V296V248H296H320V232V216H296H272V192V168H256H240V192Z" fill="white"/>
  </g>
  <defs>
    <filter id="filter0_d" x="-4" y="0" width="520" height="520" filterUnits="userSpaceOnUse" color-interpolation-filters="sRGB">
      <feFlood flood-opacity="0" result="BackgroundImageFix"/>
      <feColorMatrix in="SourceAlpha" type="matrix" values="0 0 0 0 0 0 0 0 0 0 0 0 0 0 0 0 0 0 127 0"/>
      <feOffset dy="4"/>
      <feGaussianBlur stdDeviation="2"/>
      <feColorMatrix type="matrix" values="0 0 0 0 0 0 0 0 0 0 0 0 0 0 0 0 0 0 0.25 0"/>
      <feBlend mode="normal" in2="BackgroundImageFix" result="effect1_dropShadow"/>
      <feBlend mode="normal" in="SourceGraphic" in2="effect1_dropShadow" result="shape"/>
    </filter>
  </defs>
</svg>
