<svg width="520" height="520" viewBox="0 0 520 520" fill="none" xmlns="http://www.w3.org/2000/svg">
  <g filter="url(#filter0_d)">
    <path d="M488.078 27.923C470.072 9.917 446.131 0.001 420.666 0.002L99.334 0C46.766 0.002 4 42.769 4 95.333V416.666C4 469.233 46.768 512 99.334 512H420.666C473.233 512 516 469.233 516 416.666V95.335C516 69.87 506.084 45.929 488.078 27.923ZM169.865 217.494C175.722 211.637 185.219 211.637 191.078 217.494L245 271.416L244.998 111.399C244.998 103.115 251.714 96.399 259.998 96.399C268.283 96.399 274.998 103.115 274.998 111.399L275 271.412L328.918 217.492C334.775 211.635 344.273 211.635 350.131 217.492C355.989 223.349 355.989 232.847 350.132 238.705L270.606 318.233C267.792 321.047 263.977 322.627 259.999 322.627C256.022 322.627 252.206 321.047 249.394 318.233L169.867 238.707C164.007 232.85 164.007 223.352 169.865 217.494ZM404.602 415.6H115.4C107.117 415.6 100.4 408.884 100.4 400.6C100.4 392.316 107.117 385.6 115.4 385.6H404.601C412.884 385.6 419.601 392.316 419.601 400.6C419.602 408.884 412.885 415.6 404.602 415.6Z" fill="white"/>
  </g>
  <defs>
    <filter id="filter0_d" x="0" y="0" width="520" height="520" filterUnits="userSpaceOnUse" color-interpolation-filters="sRGB">
      <feFlood flood-opacity="0" result="BackgroundImageFix"/>
      <feColorMatrix in="SourceAlpha" type="matrix" values="0 0 0 0 0 0 0 0 0 0 0 0 0 0 0 0 0 0 127 0"/>
      <feOffset dy="4"/>
      <feGaussianBlur stdDeviation="2"/>
      <feColorMatrix type="matrix" values="0 0 0 0 0 0 0 0 0 0 0 0 0 0 0 0 0 0 0.25 0"/>
      <feBlend mode="normal" in2="BackgroundImageFix" result="effect1_dropShadow"/>
      <feBlend mode="normal" in="SourceGraphic" in2="effect1_dropShadow" result="shape"/>
    </filter>
  </defs>
</svg>
