<svg width="239" height="239" viewBox="0 0 239 239" fill="none" xmlns="http://www.w3.org/2000/svg">
  <g filter="url(#filter0_d)">
    <path d="M108.672 0.451188C90.3541 2.21076 71.6305 8.75275 56.6064 18.6785C27.6412 37.718 9.41387 66.9088 4.81191 101.514C4.09004 107.063 4.09004 124.478 4.81191 129.712C7.87988 151.458 16.4973 171.716 29.491 187.823C31.8822 190.801 32.7395 191.613 33.1455 191.162C33.4162 190.891 37.4768 183.807 42.1238 175.506C46.816 167.204 50.651 160.346 50.651 160.301C50.6961 160.256 52.5008 161.204 54.7115 162.467C56.9223 163.685 58.7721 164.633 58.8172 164.587C58.9074 164.497 60.3963 162.241 62.1559 159.534C64.908 155.248 65.3592 154.301 65.3592 152.541C65.3592 151.458 64.502 138.735 63.4643 124.343C61.3889 95.8289 61.2535 92.1744 62.201 88.4297C63.735 82.0682 66.2615 77.6467 72.4426 70.3377C77.3604 64.5176 86.9252 52.3811 97.5729 38.485L105.559 27.9727L108.627 30.4541C112.732 33.7477 114.266 36.5901 114.266 40.6055C114.221 44.3953 113.635 45.7037 108.491 53.4639C104.07 60.0961 97.3924 70.7438 92.3393 79.1807L89.3615 84.1436L91.2564 97.5434C92.249 104.897 93.1965 111.033 93.377 111.169C93.5123 111.304 94.6854 107.469 95.9938 102.687C101.047 83.918 102.446 80.5342 106.01 78.6844C108.852 77.2406 113.183 78.4137 115.755 81.3463C118.552 84.5496 118.552 84.1436 116.432 111.033C114.356 136.75 113.996 139.412 111.153 146.27C110.476 147.849 106.732 157.279 102.852 167.249C97.8887 179.882 95.8584 185.522 96.2193 185.793C96.49 186.018 97.9338 186.875 99.4227 187.688C100.912 188.5 102.355 189.357 102.626 189.582C102.987 189.853 100.145 195.267 93.2867 207.449C87.8727 217.014 83.5865 225.045 83.767 225.18C84.2633 225.676 91.7527 227.706 96.7156 228.699C110.702 231.496 125.906 231.677 139.893 229.195C145.307 228.203 155.007 225.676 155.368 225.18C155.458 224.999 151.082 216.969 145.623 207.313C140.209 197.704 135.787 189.763 135.832 189.718C135.922 189.673 137.547 188.77 139.487 187.733C141.382 186.695 142.961 185.567 142.961 185.296C142.961 184.755 132.223 157.008 128.478 147.894C124.959 139.187 124.688 137.607 122.613 110.988C120.492 84.1436 120.447 84.5045 123.245 81.3463C125.816 78.4137 130.147 77.2406 132.99 78.6844C136.554 80.5342 137.998 83.9631 143.006 102.506C144.314 107.424 145.532 111.304 145.713 111.079C145.938 110.808 149.322 86.8957 149.413 84.5947C149.458 83.557 140.479 68.6684 131.817 55.5393C123.876 43.493 123.245 41.2371 126.087 35.3268C126.899 33.6574 128.072 32.3039 130.328 30.4992L133.441 27.9727L141.427 38.485C151.353 51.4336 162.948 66.1418 167.55 71.5108C175.626 81.0305 178.378 88.8358 177.295 99.4383C176.663 105.394 173.64 149.654 173.64 152.451C173.64 154.301 174.859 156.557 180.002 164.317C180.137 164.497 182.032 163.685 184.243 162.422C186.454 161.204 188.304 160.256 188.304 160.301C188.349 160.346 192.229 167.204 196.876 175.506C201.568 183.807 205.583 190.891 205.854 191.162C206.26 191.613 207.072 190.846 209.373 188.003C222.638 171.581 231.3 151.052 234.188 129.486C234.91 123.937 234.91 106.522 234.188 101.288C231.075 79.3611 222.728 59.6901 209.328 42.9065C191.011 20.032 163.67 4.78244 133.937 0.90236C128.749 0.225602 113.95 -0.0451011 108.672 0.451188Z" fill="white"/>
  </g>
  <defs>
    <filter id="filter0_d" x="0" y="0" width="239" height="239" filterUnits="userSpaceOnUse" color-interpolation-filters="sRGB">
      <feFlood flood-opacity="0" result="BackgroundImageFix"/>
      <feColorMatrix in="SourceAlpha" type="matrix" values="0 0 0 0 0 0 0 0 0 0 0 0 0 0 0 0 0 0 127 0"/>
      <feOffset dy="4"/>
      <feGaussianBlur stdDeviation="2"/>
      <feColorMatrix type="matrix" values="0 0 0 0 0 0 0 0 0 0 0 0 0 0 0 0 0 0 0.25 0"/>
      <feBlend mode="normal" in2="BackgroundImageFix" result="effect1_dropShadow"/>
      <feBlend mode="normal" in="SourceGraphic" in2="effect1_dropShadow" result="shape"/>
    </filter>
  </defs>
</svg>
