<svg width="787" height="129" viewBox="0 0 787 129" fill="none" xmlns="http://www.w3.org/2000/svg">
  <g filter="url(#filter0_d)">
    <path d="M38.0998 1.6C22.1998 5.9 9.6998 18.5 5.4998 34.5C3.3998 42.8 3.3998 78.2 5.4998 86.5C9.6998 102.6 21.3998 114.5 37.8998 119.4C42.8998 120.9 74.3998 121 393.6 121C741.5 121 743.8 121 750.3 119C763.7 114.9 774.8 104.5 780.2 91.2C782.4 85.8 782.5 84.3 782.5 61C782.5 39.8 782.3 35.8 780.7 31.2C776.3 18.8 765.8 7.9 753.2 2.8L747.5 0.499998L395.5 0.299998C90.1998 0.0999982 42.7998 0.299998 38.0998 1.6ZM749.4 18.9C755.7 22 761.6 27.9 764.4 33.9C766.3 38.2 766.5 40.1 766.5 60.5C766.5 80.8 766.3 82.9 764.4 87.1C761.3 93.7 756.6 98.5 750.2 101.7L744.5 104.5L394.8 104.8C46.4998 105 45.0998 105 39.6998 103C32.3998 100.3 26.6998 95.1 23.2998 88.2C20.5998 82.6 20.4998 82 20.1998 63.1C19.9998 50.9 20.2998 42 20.9998 39.1C23.4998 29 32.0998 20 41.7998 17.4C45.5998 16.4 116 16.2 395.5 16.3L744.5 16.5L749.4 18.9Z" fill="white"/>
    <path d="M46.3996 43.6C41.3996 46 39.4996 52.4 42.3996 56.6C43.1996 57.7 45.6996 59.4 47.8996 60.3C50.1996 61.2 53.7996 62.7 55.9996 63.6C62.0996 66.2 62.6996 71.7 56.9996 74C52.2996 75.9 44.9996 73.1 44.9996 69.3C44.9996 68.6 43.8996 68 42.4996 68C39.2996 68 39.2996 70 42.4996 73.8C47.3996 79.6 58.9996 80 63.7996 74.5C68.2996 69.3 65.6996 62.8 57.7996 59.6C48.0996 55.7 46.4996 54.6 46.1996 51.8C45.7996 48.5 49.0996 46 53.6996 46C57.1996 46 60.9996 48.9 60.9996 51.5C60.9996 52.4 61.8996 53 63.4996 53C66.3996 53 66.3996 53 64.4996 48.4C62.0996 42.6 53.1996 40.2 46.3996 43.6Z" fill="white"/>
    <path d="M92.4998 42.9C84.8998 46.2 81.4998 60.7 86.2998 70C89.4998 76.3 92.8998 78.5 99.3998 78.4C102.9 78.3 106.1 77.6 108.2 76.3C111.4 74.5 111.5 74.2 111.8 67.2L112.1 60H105.5C99.6998 60 98.9998 60.2 98.9998 62C98.9998 63.7 99.6998 64 103.1 64H107.1L106.8 68.2C106.5 71.8 106 72.7 103.6 73.9C99.6998 75.7 94.2998 74.4 91.6998 70.8C89.4998 67.8 88.3998 60 89.3998 54.4C90.8998 46.5 99.2998 43.2 104.5 48.5C105.9 49.8 107 51.4 107 52C107 52.5 108.1 53 109.4 53C111.7 53 111.8 52.8 110.9 50.1C109.2 45.2 105.6 42.7 99.7998 42.3C96.8998 42.2 93.5998 42.4 92.4998 42.9Z" fill="white"/>
    <path d="M208 43.8C203 46.6 200.5 52 200.5 60.5C200.5 71.6 205.7 78.3 214.2 78.3C223.7 78.3 229 72 229 60.5C229 46.1 218.8 38 208 43.8ZM219.1 47C222.4 48.8 224 53.4 224 60.9C224 67.2 223.7 68.3 221.2 71.1C219 73.5 217.6 74.2 214.7 74.2C207.7 74.2 204.3 68.2 205.3 57.6C205.8 52.4 206.3 51.1 208.9 48.8C212.2 45.9 215.8 45.3 219.1 47Z" fill="white"/>
    <path d="M240.5 43.5C236.5 45.6 235 47.8 235 51.6C235 56.3 238 59.3 245.3 61.9C253 64.6 255.5 66.9 254.6 70.4C253.2 76 242 75.9 239.5 70.2C238.3 67.4 234 67.1 234 69.9C234 72.7 238.4 76.8 242.8 78C253.3 80.8 262.7 73.4 258.8 65.3C257.5 62.6 256.2 61.7 245.5 56.8C241.6 55 240.4 53.9 240.2 51.9C239.8 48.2 242.9 45.8 247.6 46.2C250.7 46.4 251.9 47.1 253.5 49.7C255.4 52.7 258.3 54 259.4 52.2C259.6 51.8 259.2 50 258.3 48.3C255.6 42.6 246.8 40.3 240.5 43.5Z" fill="white"/>
    <path d="M341.1 43.7C331.5 48.5 331.5 71.5 341.2 76.6C345.6 78.9 353.8 78.8 357.9 76.4C360.9 74.6 361 74.4 361 67.2V59.9L354.8 60.2C349.8 60.4 348.5 60.9 348.2 62.2C347.9 63.5 348.8 63.9 352.1 64.2C356.2 64.5 356.4 64.6 356.8 68.1C357.2 72.6 355.3 74.3 349.5 74.4C345.9 74.5 344.5 74 342.3 71.7C339.7 69.1 339.5 68.5 339.5 59.9C339.5 51.2 339.6 50.7 342.3 48.4C346.9 44.5 353 45.3 355.6 50.1C357.2 53.4 361 54.1 361 51.2C361 44.1 349.3 39.7 341.1 43.7Z" fill="white"/>
    <path d="M420.4 43C417.6 44.1 414 48.8 414 51.2C414 55.6 416.9 58.8 422.7 60.9C431.3 64.1 433 65.1 433.6 67.7C434.5 71 433.5 72.9 430.4 74.1C425.6 75.8 418 72.9 418 69.3C418 68.6 416.9 68 415.5 68C412.3 68 412.3 70 415.5 73.8C420.4 79.6 432 80 436.8 74.5C441.7 68.8 438 61.5 428.7 58.6C421.7 56.4 419 54.4 419 51.5C419 46.5 428 44 432 48C433.1 49.1 434 50.7 434 51.5C434 52.4 434.9 53 436.5 53C439.4 53 439.6 52 437.4 47.9C434.9 43 426.4 40.6 420.4 43Z" fill="white"/>
    <path d="M632.5 43C626.9 45.3 624 51.3 624 60.5C624 67.6 625.1 71.4 628.3 74.8C634.6 81.5 648.4 78.4 650.5 69.7C651.1 67.3 650.9 67 648.8 67C647.1 67 646.1 67.8 645.3 70C643.1 75.9 634.4 76.3 630.9 70.7C629.5 68.3 629 65.6 629 59.7C629 52.4 629.2 51.7 631.9 48.9C635.6 45.2 640.7 44.9 643.8 48.3C645 49.6 646 51.4 646 52.3C646 53.4 646.8 54 648.5 54C651.4 54 651.7 52.3 649.4 47.9C646.9 43.1 638.3 40.6 632.5 43Z" fill="white"/>
    <path d="M664 43.8C658.7 46.5 656.6 51.1 656.5 60C656.5 65.2 657.1 68.6 658.3 71C662.9 80.5 678 80.8 682.4 71.6C684.5 67.2 684.4 67 681.6 67C679.9 67 678.9 67.9 678 69.9C675.6 75.7 667.8 76.2 663.7 70.9C659.7 65.5 660.3 53 664.7 48.6C669.2 44.1 677 45.8 678.4 51.5C678.9 53.3 679.7 54 681.6 54C683.8 54 684 53.7 683.5 51.7C681 43.2 672.3 39.6 664 43.8Z" fill="white"/>
    <path d="M72 60.5V78H74.5H77V60.5V43H74.5H72V60.5Z" fill="white"/>
    <path d="M124.6 55.7C121.9 62.7 118.9 70.6 117.9 73.2L116 78H118.4C120.4 78 121.2 77.1 122.6 73.5L124.3 68.9L131.8 69.2L139.3 69.5L140.8 73.7C141.9 77.2 142.6 78 144.7 78C147.6 78 147.9 79.4 140 58.6C134.9 45.2 134 43.5 131.8 43.2C129.6 42.9 129.1 43.8 124.6 55.7ZM134.5 56.3C135.9 60 137 63.5 137 64C137 64.6 134.5 65 131.4 65C127.3 65 125.9 64.7 126.2 63.7C126.5 63.1 127.7 59.5 129 55.8C130.3 52.1 131.5 49.2 131.7 49.3C131.8 49.5 133.1 52.6 134.5 56.3Z" fill="white"/>
    <path d="M166 60.5V78H168.5H171V64.7V51.5L179.6 64.5C186.2 74.7 188.6 77.6 190.5 77.8L193 78.1V60.6C193 43.8 192.9 43 191 43C189.2 43 189 43.8 188.8 56.2L188.5 69.5L179.8 56.2C172.4 45 170.7 43 168.5 43H166V60.5Z" fill="white"/>
    <path d="M301.2 45.1C293.4 49 289 57.5 289 68.4C289.1 82 297.4 90 310.2 88.8C315.2 88.3 317.7 86.9 316.6 85.2C316.3 84.6 314.6 84.6 312.2 85.3C304.9 87.2 297.7 84.2 294.4 77.8C292.1 73.4 292.3 62.3 294.8 56.7C295.9 54.3 298.5 51 300.5 49.4C303.7 47 305.3 46.5 310.1 46.5C320.2 46.5 325 52.2 325 64.3C325 70.2 324.7 71.4 322.5 73.5C319.7 76.4 318.7 76.6 317 74.5C316.1 73.4 316 70.7 316.5 64.6C317.1 56.8 317 56.1 315.1 55.1C311.3 53 307 53.8 304 57C298.4 63 298.1 76 303.6 78C306.1 79 310.3 78 311.5 76C311.9 75.3 313 75.7 314.7 77C319.7 80.9 326.2 76.9 327.9 68.9C329.9 59.7 326.3 49.4 319.7 45.5C315 42.7 306.3 42.5 301.2 45.1ZM312.7 64.1C312.1 71.6 310.2 75 306.8 75C304 75 302.8 70.8 304.1 65.2C305.3 59.6 307.4 57 310.8 57C313.3 57 313.3 57 312.7 64.1Z" fill="white"/>
    <path d="M369.7 43.7C369.3 44 369 51.9 369 61.2V78H371.5H374V60.5C374 44.2 373.9 43 372.2 43C371.2 43 370 43.3 369.7 43.7Z" fill="white"/>
    <path d="M382 56.2C382 70.5 382.7 72.9 387.2 76.3C390.4 78.7 398.2 79 401.9 77.1C406.9 74.4 408 70.5 408 56.2V43H405.5H403V56.4C403 72.4 402.1 74.5 395 74.5C387.9 74.5 387 72.4 387 56.4V43H384.5H382V56.2Z" fill="white"/>
    <path d="M445 60.5V78H456.6C467.1 78 468.1 77.8 467.8 76.2C467.5 74.8 466.1 74.5 458.7 74.2L450 73.9V68V62H457.5C464.3 62 465 61.8 465 60C465 58.2 464.3 58 457.5 58H450V52V46H458.5C465.4 46 467 45.7 467 44.5C467 43.3 465.1 43 456 43H445V60.5Z" fill="white"/>
    <path d="M473 60.5V78H475.5C477.9 78 478 77.8 478 71V64H484.5C492.1 64 495.6 62.6 497.6 58.9C500.4 53.4 498.5 46.4 493.5 44.2C492.1 43.5 486.9 43 482 43H473V60.5ZM492 48.5C493.2 49.6 494 51.6 494 53.6C494 58.2 491.1 60 483.8 60H478V52.9V45.8L484 46.2C487.9 46.5 490.6 47.3 492 48.5Z" fill="white"/>
    <path d="M505 60.5V78H507.5C509.9 78 510 77.8 510 71.1V64.2L517.6 63.8C524.5 63.5 525.5 63.2 527.6 60.7C529.4 58.6 530 56.7 530 53C530 48.8 529.6 47.8 526.9 45.6C524.1 43.2 523.1 43 514.4 43H505V60.5ZM523.8 48.4C526.1 50.6 525.9 56.9 523.5 58.6C522.4 59.4 519.2 60 515.8 60H510V52.9V45.7L516.1 46.3C519.7 46.6 522.9 47.5 523.8 48.4Z" fill="white"/>
    <path d="M536 60.5V78H547.5C558.3 78 559 77.9 559 76C559 74.1 558.3 74 550 74H541V68V62.1L548.8 61.8C554.8 61.6 556.5 61.2 556.5 60C556.5 58.8 554.8 58.4 548.8 58.2L541 57.9V52V46H550C557.3 46 559 45.7 559 44.5C559 43.3 557.1 43 547.5 43H536V60.5Z" fill="white"/>
    <path d="M562 43.7C562 44.2 564.8 52 568.2 61.2C573.6 76 574.6 78 576.6 78C578.5 78 579.3 76.5 582.5 67.7C584.6 62.1 587.5 54.2 589.1 50.2L591.8 43H589.2C586.7 43 586.3 43.7 582.7 54.2C576 73.8 577.1 73.5 571.6 57.2C567.2 44.2 566.6 43 564.4 43C563.1 43 562 43.3 562 43.7Z" fill="white"/>
    <path d="M597 60.5V78H608C618.3 78 619 77.9 619 76C619 74.1 618.3 74 609.9 74H600.9L601.2 68L601.5 62H609.2C616.3 62 617 61.8 617 60C617 58.3 616.2 58.1 609.3 57.8L601.5 57.5V52V46.5L610.3 46.2C617.1 46 619 45.6 619 44.5C619 43.3 617 43 608 43H597V60.5Z" fill="white"/>
    <path d="M690 60.5V78H692.5C695 78 695 77.9 695 70V62H704H713V70C713 77.9 713 78 715.5 78H718V60.5V43H715.5C713.1 43 713 43.2 713 50.5V58H704H695V50.5C695 43.2 694.9 43 692.5 43H690V60.5Z" fill="white"/>
    <path d="M726 60.5V78H728.5H731V60.5V43H728.5H726V60.5Z" fill="white"/>
    <path d="M740 60.5V78H742.5H745V60.5V43H742.5H740V60.5Z" fill="white"/>
    <path d="M265.4 52.4C264.5 54.8 265.8 57.2 267.7 56.8C268.9 56.6 269.5 55.6 269.5 54C269.5 51.1 266.3 49.9 265.4 52.4Z" fill="white"/>
    <path d="M149 63C149 64.8 149.7 65 155 65C160.3 65 161 64.8 161 63C161 61.2 160.3 61 155 61C149.7 61 149 61.2 149 63Z" fill="white"/>
    <path d="M265.7 73.7C265.3 74 265 75.2 265 76.2C265 77.5 265.7 78 267.5 78C269.5 78 270 77.5 270 75.5C270 73.7 269.5 73 268.2 73C267.2 73 266 73.3 265.7 73.7Z" fill="white"/>
  </g>
  <defs>
    <filter id="filter0_d" x="-0.0751953" y="0.233398" width="786.575" height="128.767" filterUnits="userSpaceOnUse" color-interpolation-filters="sRGB">
      <feFlood flood-opacity="0" result="BackgroundImageFix"/>
      <feColorMatrix in="SourceAlpha" type="matrix" values="0 0 0 0 0 0 0 0 0 0 0 0 0 0 0 0 0 0 127 0"/>
      <feOffset dy="4"/>
      <feGaussianBlur stdDeviation="2"/>
      <feColorMatrix type="matrix" values="0 0 0 0 0 0 0 0 0 0 0 0 0 0 0 0 0 0 0.25 0"/>
      <feBlend mode="normal" in2="BackgroundImageFix" result="effect1_dropShadow"/>
      <feBlend mode="normal" in="SourceGraphic" in2="effect1_dropShadow" result="shape"/>
    </filter>
  </defs>
</svg>
