<svg width="346" height="398" viewBox="0 0 346 398" fill="none" xmlns="http://www.w3.org/2000/svg">
  <g filter="url(#filter0_d)">
    <path d="M185.479 3.07475C185.248 18.067 178.098 31.9061 161.03 50.1274C144.192 68.1182 130.123 87.7235 130.123 92.7978C130.123 94.4123 134.274 96.7188 139.118 98.3334C151.804 102.024 162.875 115.632 168.18 133.623C173.024 150.46 177.175 156.227 181.096 152.306C185.709 147.693 184.095 132.7 176.483 111.019C167.488 84.2637 166.565 70.6553 173.946 62.8132C176.945 59.5841 182.711 55.8937 186.863 54.2791C193.09 51.9726 194.474 50.1274 195.858 42.0547C197.242 31.4447 194.243 13.9153 188.938 4.228C185.94 -1.07696 185.709 -1.30761 185.479 3.07475Z" fill="white"/>
    <path d="M259.286 31.4447C252.366 33.5206 241.987 38.5949 236.452 42.2853L226.072 48.9742L238.297 49.6661C249.137 50.3581 251.213 49.6661 258.825 42.7466C263.668 38.5949 269.896 33.2899 273.125 31.2141C280.736 26.1398 275.662 26.1398 259.286 31.4447Z" fill="white"/>
    <path d="M127.816 49.4355C115.361 51.742 88.1439 66.9649 74.9968 78.9587C36.7089 114.479 25.6376 164.761 46.1655 210.891C54.0076 228.651 69.9225 244.335 104.059 267.4C136.35 289.081 143.269 295.77 152.034 312.838C161.491 331.752 165.181 348.358 164.259 369.578C163.797 382.725 164.489 389.184 166.104 389.184C169.794 389.184 207.39 365.196 226.765 350.434C244.294 337.057 257.211 321.834 266.437 303.843C272.895 290.927 275.893 255.406 270.358 255.406C268.513 255.406 266.206 256.329 264.822 257.482C261.824 260.481 238.759 266.939 231.147 266.939C226.073 266.939 224.458 268.323 223.305 273.166C220.537 284.238 212.926 297.846 204.392 306.611C199.779 311.454 195.396 315.375 194.474 315.375C193.551 315.375 194.474 310.993 196.319 305.457C200.009 295.078 199.087 272.705 194.935 268.553C191.475 265.094 182.019 269.937 177.175 277.318C174.638 281.009 172.793 289.773 172.101 300.383L170.947 317.451L164.72 314.222C154.571 308.917 140.271 290.927 137.042 279.625C133.582 267.17 134.966 253.561 141.655 238.338C151.342 215.734 146.96 209.276 116.745 201.203C105.212 197.974 91.6037 193.361 86.5294 191.055C76.3807 185.75 66.2321 174.679 64.1563 166.375C62.0804 158.533 64.8482 143.541 70.1532 133.162C74.3049 125.089 96.2167 103.177 100.138 103.177C101.291 103.177 105.443 97.1801 109.364 89.7993C117.206 75.2683 122.05 69.5021 136.581 56.355C146.037 48.0516 146.268 47.8209 140.04 48.0516C136.35 48.2822 131.045 48.9742 127.816 49.4355Z" fill="white"/>
    <path d="M191.014 57.0469C173.254 62.5825 170.255 77.1135 180.635 107.098C190.091 135.007 191.937 147.462 186.862 155.073C182.48 161.762 173.946 162.685 170.255 156.688C168.871 154.612 166.104 147.001 164.028 139.85C158.723 122.09 151.573 112.172 139.118 105.945C129.661 101.332 127.354 101.101 117.206 103.177C93.4488 108.482 74.7661 128.549 72.9209 150.691C70.845 174.909 80.9937 184.597 117.436 193.131C140.271 198.436 149.266 203.049 152.957 210.891C156.647 218.964 156.186 223.577 149.727 240.645C143.5 257.021 142.347 273.166 146.498 281.47C149.497 287.467 160.337 299.23 162.644 299.23C163.336 299.23 164.72 294.848 165.642 289.543C167.718 276.857 173.254 268.092 182.019 263.248C188.015 260.019 193.09 259.558 207.39 260.711C269.666 265.324 312.336 226.575 312.336 165.683C312.336 152.075 311.183 146.309 307.723 140.542C295.037 119.784 249.83 118.169 239.451 138.005C237.605 141.696 234.607 152.767 232.992 162.915C229.302 183.905 225.842 191.285 220.537 190.363C213.848 188.979 211.772 172.372 216.616 155.073C224.458 126.011 240.373 109.866 271.05 100.871C289.502 95.3349 297.344 88.1847 295.037 78.2668C293.653 71.1166 287.426 64.1971 277.739 59.1228C270.588 55.4324 201.855 53.8178 191.014 57.0469ZM224.458 69.5021C220.768 75.9603 217.077 95.1043 215.232 118.169C215.232 119.323 214.31 118.4 213.156 115.863C209.466 107.329 210.389 79.42 214.54 73.1925C222.844 60.7373 231.608 57.5082 224.458 69.5021ZM253.982 68.1181C250.752 71.5779 244.755 81.0346 241.065 89.338C228.379 116.324 222.152 120.476 230.455 96.4882C236.913 77.3442 241.757 69.5021 249.83 65.1197C259.286 60.0454 260.67 60.968 253.982 68.1181ZM195.858 72.7312C195.166 77.8055 196.088 88.8767 197.933 98.7947C200.009 108.021 201.624 120.015 201.624 125.089C201.393 132.931 200.471 131.086 195.858 113.556C189.861 91.1832 188.707 75.499 192.398 68.3488C196.319 61.4293 197.472 63.0438 195.858 72.7312ZM282.352 71.8086C282.352 74.1151 257.903 96.2575 255.135 96.2575C253.52 96.2575 257.672 90.4912 264.361 83.5717C274.509 72.9618 282.352 67.6568 282.352 71.8086ZM116.283 125.319C112.593 136.391 114.438 164.53 119.282 174.679C123.664 183.213 122.972 186.211 117.667 181.829C106.827 172.833 104.289 142.157 112.362 123.013C117.206 111.942 119.974 113.556 116.283 125.319ZM138.195 151.844C138.195 180.214 137.964 181.368 134.735 174.217C130.584 164.761 130.353 133.854 134.274 126.703C135.888 123.936 137.503 121.629 137.734 121.629C137.964 121.629 138.195 135.237 138.195 151.844ZM90.681 131.316C88.3745 139.62 89.989 159.225 93.6794 166.606C95.0633 169.143 98.2924 173.525 100.83 176.293C103.367 179.292 104.751 181.598 103.828 181.598C99.6763 181.598 88.3745 174.217 86.068 169.835C82.1469 162.454 82.8389 139.62 87.2212 131.086C92.0649 121.86 93.4488 121.86 90.681 131.316ZM280.276 190.824C277.277 212.505 268.743 233.725 260.209 241.798C253.52 248.026 253.059 246.411 259.286 236.493C268.512 221.501 275.663 193.592 277.277 165.453L278.661 138.928L280.968 155.073C282.352 166.375 282.121 177.216 280.276 190.824ZM258.133 181.137C258.133 218.964 254.904 231.88 241.988 245.258C229.302 258.635 224.92 258.405 235.068 245.027C248.215 227.728 256.519 189.902 253.52 160.84C252.367 148.615 252.598 146.309 255.135 148.846C257.211 150.922 257.903 160.378 258.133 181.137ZM298.036 182.751C296.882 207.662 294.115 218.502 286.273 228.882C280.506 236.493 279.584 231.419 284.889 219.656C290.424 206.97 295.96 179.522 296.421 160.84C296.652 153.92 297.344 150.23 297.805 152.767C298.497 155.304 298.497 168.682 298.036 182.751ZM160.107 261.403C160.107 265.094 156.416 265.786 154.341 262.326C152.495 259.327 155.263 254.945 158.031 256.56C159.184 257.482 160.107 259.558 160.107 261.403Z" fill="white"/>
    <path d="M273.817 108.482C265.744 117.247 265.514 119.323 271.511 119.323C276.124 119.323 277.508 117.939 278.43 111.711C279.814 102.254 279.583 102.024 273.817 108.482Z" fill="white"/>
    <path d="M227.225 141.696C220.767 154.612 216.385 176.524 219.614 179.753C223.074 183.213 226.072 175.371 228.148 157.149C229.071 149.768 230.685 141.234 231.838 138.236C234.837 130.163 232.069 132.239 227.225 141.696Z" fill="white"/>
    <path d="M13.1822 153.92C5.34006 170.527 1.8803 192.9 5.34006 207.431C13.4128 243.643 30.2503 261.634 80.0708 286.775C99.4454 296.462 119.281 307.533 124.586 311.224C136.811 319.988 149.035 336.365 155.032 352.28C159.184 363.12 159.876 364.043 159.876 358.046C160.107 348.589 155.032 330.137 149.035 318.605C141.193 303.382 125.97 289.773 98.9841 273.858C46.8571 242.951 23.5614 210.66 19.6404 163.146L18.0258 143.541L13.1822 153.92Z" fill="white"/>
    <path d="M329.635 177.677C316.949 191.055 310.491 205.817 307.262 228.42C304.263 250.563 301.034 258.866 300.804 244.566C300.804 239.261 300.112 234.417 298.958 233.725C298.036 233.264 293.653 236.262 289.04 240.414C280.968 247.795 280.737 248.487 279.584 268.323C277.277 303.843 265.975 324.832 235.068 349.512C224.458 358.046 216.155 365.196 216.386 365.657C218 367.272 255.135 349.973 267.59 341.9C274.971 336.826 289.502 324.601 299.881 314.222C326.175 287.928 328.943 280.086 330.558 230.035C331.941 195.207 332.403 191.055 337.938 179.753C341.167 173.295 342.782 167.759 341.629 167.759C340.245 167.759 334.94 172.142 329.635 177.677Z" fill="white"/>
    <path d="M204.853 270.629C205.545 272.705 206.237 278.471 206.468 283.776L206.699 293.464L211.081 284.238C217.078 271.091 216.847 266.939 209.466 266.939C204.853 266.939 203.7 267.861 204.853 270.629Z" fill="white"/>
  </g>
  <defs>
    <filter id="filter0_d" x="0" y="6.10352e-05" width="346" height="397.184" filterUnits="userSpaceOnUse" color-interpolation-filters="sRGB">
      <feFlood flood-opacity="0" result="BackgroundImageFix"/>
      <feColorMatrix in="SourceAlpha" type="matrix" values="0 0 0 0 0 0 0 0 0 0 0 0 0 0 0 0 0 0 127 0"/>
      <feOffset dy="4"/>
      <feGaussianBlur stdDeviation="2"/>
      <feColorMatrix type="matrix" values="0 0 0 0 0 0 0 0 0 0 0 0 0 0 0 0 0 0 0.25 0"/>
      <feBlend mode="normal" in2="BackgroundImageFix" result="effect1_dropShadow"/>
      <feBlend mode="normal" in="SourceGraphic" in2="effect1_dropShadow" result="shape"/>
    </filter>
  </defs>
</svg>
