<svg width="518" height="518" viewBox="0 0 518 518" fill="none" xmlns="http://www.w3.org/2000/svg">
  <g filter="url(#filter0_d)">
    <path d="M333 0.239397C331.6 0.439397 326.2 1.4394 321 2.2394C315.8 3.1394 306.1 5.6394 299.5 7.7394C250.3 23.8394 211.2 62.5394 195.1 111.139C184.5 143.239 183.5 170.239 191.7 203.939L194.3 214.839L99.2 309.939L4 405.139V457.439V509.639H56.3H108.5L124.9 493.239L141.2 476.939L142.6 458.139C143.4 447.739 144.2 439.139 144.3 438.939C144.5 438.839 151.4 438.239 159.6 437.639C184.2 436.039 180.3 437.839 198.8 419.339L214.9 403.139L216.2 384.139L217.5 365.139L236.5 363.839L255.5 362.539L277.2 340.839L298.9 319.239L309.7 321.939C328.3 326.439 333.7 327.139 352.5 327.039C367.3 327.039 372.4 326.639 381 324.739C396.4 321.439 407.9 317.439 422.5 310.139C439.9 301.439 452.1 292.639 466.5 278.139C489.7 255.139 504.1 228.339 511.2 195.339C514.2 181.339 514.4 150.139 511.6 135.139C505.3 101.239 490.3 72.7394 465.6 48.1394C441.4 23.9394 415.7 10.0394 381.5 2.5394C374.9 1.0394 367.6 0.439397 354 0.139397C343.8 -0.0606033 334.4 -0.0606033 333 0.239397ZM380.5 80.0394C400.9 85.6394 418.6 100.139 428 119.139C433.1 129.539 435 136.839 435.7 149.139C437.7 184.539 415 216.039 380.4 225.739C370.1 228.639 352.9 228.839 342.5 226.239C312.8 218.539 291.7 195.639 286.4 165.539C279.6 126.239 305.3 88.0394 344.6 79.2394C353.2 77.3394 371.8 77.7394 380.5 80.0394Z" fill="white"/>
  </g>
  <defs>
    <filter id="filter0_d" x="0" y="0" width="517.581" height="517.639" filterUnits="userSpaceOnUse" color-interpolation-filters="sRGB">
      <feFlood flood-opacity="0" result="BackgroundImageFix"/>
      <feColorMatrix in="SourceAlpha" type="matrix" values="0 0 0 0 0 0 0 0 0 0 0 0 0 0 0 0 0 0 127 0"/>
      <feOffset dy="4"/>
      <feGaussianBlur stdDeviation="2"/>
      <feColorMatrix type="matrix" values="0 0 0 0 0 0 0 0 0 0 0 0 0 0 0 0 0 0 0.25 0"/>
      <feBlend mode="normal" in2="BackgroundImageFix" result="effect1_dropShadow"/>
      <feBlend mode="normal" in="SourceGraphic" in2="effect1_dropShadow" result="shape"/>
    </filter>
  </defs>
</svg>
