<svg width="178" height="178" viewBox="0 0 178 178" fill="none" xmlns="http://www.w3.org/2000/svg">
  <g filter="url(#filter0_d)">
    <path d="M37.2688 150.518C35.6174 149.892 34.4354 148.571 33.966 146.833C33.6705 145.685 33.6705 144.921 33.966 143.912C34.5223 142.07 35.3566 141.079 36.9732 140.314L37.9814 139.845L89.6953 139.793C144.104 139.74 142.157 139.723 143.582 140.505C145.772 141.687 146.85 144.469 146.103 146.954C145.581 148.658 144.416 149.909 142.765 150.535C141.844 150.883 141.479 150.883 89.9908 150.865C39.007 150.865 38.1379 150.865 37.2688 150.518Z" fill="white"/>
    <path d="M15.21 94.3539C14.0453 93.9715 13.4543 93.6065 12.7416 92.8764C11.7855 91.8682 11.2988 90.5645 11.2988 89C11.2988 86.6881 12.3939 84.9324 14.393 83.9938L15.3838 83.5244L89.6953 83.4723C146.833 83.4375 164.181 83.4723 164.789 83.6287C165.224 83.7504 165.971 84.0981 166.458 84.4283C168.022 85.4365 168.787 86.9662 168.787 89.0174C168.787 91.677 167.414 93.5369 164.806 94.3713C164.007 94.632 15.9748 94.6147 15.21 94.3539Z" fill="white"/>
    <path d="M37.7207 38.0336C37.4773 37.9293 37.0254 37.7381 36.6951 37.599C35.0438 36.869 33.7227 34.6961 33.7227 32.6971C33.7227 31.1326 34.4354 29.4986 35.5479 28.5252C36.1041 28.0559 36.4518 27.8473 37.7729 27.3084C38.1379 27.1693 51.6617 27.1172 90.0082 27.1172C140.836 27.1172 141.774 27.1172 142.678 27.4475C144.416 28.0906 145.407 29.1162 145.998 30.8893C146.468 32.2625 146.45 33.0795 145.981 34.5049C145.39 36.3127 144.225 37.4078 142.209 38.051C141.374 38.3117 38.3465 38.2943 37.7207 38.0336Z" fill="white"/>
  </g>
  <defs>
    <filter id="filter0_d" x="-4" y="0" width="186" height="188" filterUnits="userSpaceOnUse" color-interpolation-filters="sRGB">
      <feFlood flood-opacity="0" result="BackgroundImageFix"/>
      <feColorMatrix in="SourceAlpha" type="matrix" values="0 0 0 0 0 0 0 0 0 0 0 0 0 0 0 0 0 0 127 0"/>
      <feOffset dy="6"/>
      <feGaussianBlur stdDeviation="2"/>
      <feColorMatrix type="matrix" values="0 0 0 0 0 0 0 0 0 0 0 0 0 0 0 0 0 0 0.25 0"/>
      <feBlend mode="normal" in2="BackgroundImageFix" result="effect1_dropShadow"/>
      <feBlend mode="normal" in="SourceGraphic" in2="effect1_dropShadow" result="shape"/>
    </filter>
  </defs>
</svg>
