<svg width="91" height="68" viewBox="0 0 91 68" fill="none" xmlns="http://www.w3.org/2000/svg">
  <g filter="url(#filter0_d)">
    <path d="M70.4999 0.175001C70.1249 0.250001 69.475 0.512501 69.0625 0.737501C67.9125 1.3875 65.35 3.3875 65.425 3.575C65.55 3.9125 81.0624 24.4875 81.1999 24.5C81.3999 24.5 83.8874 22.4875 84.6249 21.7125C86.2999 19.9875 86.4374 18.25 85.1124 15.7875C84.4249 14.5 83.5249 13.2625 77.2124 4.875C76.5124 3.95 75.3999 2.65 74.7499 2C73.0624 0.300001 72.0124 -0.149999 70.4999 0.175001Z" fill="white"/>
    <path d="M17.8625 0.237488C17.375 0.399988 16.2625 1.14999 15.6125 1.77499C14.725 2.61249 13.3375 4.33749 9.7125 9.08749C5.8625 14.1125 5.05 15.2875 4.475 16.6125C4.125 17.425 4.075 17.7125 4.0625 18.5625C4.0625 19.7 4.3375 20.4125 5.0875 21.35C5.475 21.825 8.4625 24.325 8.8 24.45C8.875 24.475 9.0125 24.3875 9.1 24.2375C9.2 24.0875 11.225 21.425 13.6125 18.325C21.4875 8.08749 24.4625 4.22499 24.725 3.86249C24.825 3.73749 24.8625 3.57499 24.8125 3.51249C24.625 3.19999 21.575 0.962488 20.85 0.599988C20.2125 0.274988 19.8875 0.187488 19.125 0.162488C18.6125 0.149988 18.0375 0.187488 17.8625 0.237488Z" fill="white"/>
    <path d="M40.3124 4.19999C38.3749 4.37499 35.4749 4.66249 33.5624 4.87499C32.8749 4.94999 31.0749 5.03749 29.5624 5.06249L26.8124 5.11249L24.5249 8.08749C23.2624 9.72499 21.9374 11.45 21.5749 11.9375C21.1999 12.4125 20.5749 13.2375 20.1749 13.75C18.6249 15.75 10.9249 25.825 10.8249 25.975C10.7624 26.0875 10.9124 26.3375 11.2749 26.725C11.5874 27.05 11.8874 27.425 11.9624 27.55C12.0874 27.7875 12.1124 27.775 12.5124 27.4375C12.7499 27.25 13.2499 26.9375 13.6249 26.7625C14.2499 26.475 14.4624 26.45 15.8749 26.4375C17.3624 26.4375 17.4749 26.4625 18.2499 26.825C19.3749 27.3625 20.0249 27.875 20.6874 28.725C21.6624 29.9875 21.9749 30.7625 22.1124 32.25L22.1874 33.1875L23.3749 33.2625C24.3999 33.3125 24.6874 33.3875 25.4999 33.775C27.6249 34.8 29.2499 37.2375 29.2499 39.4V39.9625L30.3249 40.05C32.3374 40.2 34.1499 41.2875 35.2749 43.025C36.0499 44.2125 36.1874 44.75 36.1874 46.5375C36.1874 47.8125 36.2249 48.125 36.3624 48.125C36.6874 48.125 38.3124 48.9875 38.7624 49.4C39.3499 49.95 40.0499 50.8375 40.2999 51.375C41.0749 53.0625 41.0624 54.975 40.2499 56.3375C40.1124 56.575 39.9999 56.7875 39.9999 56.8125C39.9999 56.8375 40.6874 57.425 41.5374 58.1C43.3749 59.5625 43.8749 59.775 44.8499 59.45C46.4249 58.925 47.5874 57.3375 47.4749 55.8625C47.4374 55.3375 47.3999 55.2875 46.1249 54.275C43.9499 52.5375 43.8374 52.45 43.6124 52.2375C43.2874 51.9125 43.1999 51.325 43.4249 50.8875C43.6749 50.425 43.9749 50.25 44.5374 50.25C44.9124 50.25 45.3124 50.525 47.3749 52.1875C50.0374 54.3125 50.2249 54.4125 51.5124 54.1375C53.9624 53.6125 55.4874 50.8125 54.4624 48.725C54.1624 48.125 53.8624 47.8375 52.0249 46.3625C50.8749 45.45 49.8124 44.5625 49.6624 44.4125C49.2624 44.025 49.2624 43.15 49.6624 42.775C50.0249 42.4375 50.6374 42.3 50.9874 42.4875C51.1249 42.5625 52.5499 43.6875 54.1499 44.9625C55.7499 46.25 57.2874 47.4125 57.5499 47.55C58.2499 47.9 59.4124 47.875 60.1874 47.4875C62.3749 46.4 63.3124 43.45 61.9874 41.8375C61.7749 41.575 60.2374 40.275 58.5624 38.95C56.8999 37.6125 55.4999 36.425 55.4499 36.3125C55.2749 35.85 55.3749 35.2375 55.6874 34.9375C56.0124 34.6 56.6874 34.5125 57.1249 34.75C57.2499 34.825 59.2874 36.425 61.6499 38.3125C64.0124 40.2 66.1249 41.8375 66.3624 41.95C66.8874 42.2 67.8249 42.125 68.6499 41.75C70.6374 40.875 71.7499 38.3625 70.9124 36.6125C70.5874 35.9125 70.3999 35.7625 64.6874 31.2C62.2124 29.225 59.9624 27.425 59.6874 27.2C57.5124 25.425 51.4124 20.575 50.9749 20.275C49.0874 18.975 48.0124 18.6875 45.9624 18.9375C41.9374 19.425 41.2624 19.5125 40.7499 19.6375C39.9499 19.8375 36.9624 19.925 35.9874 19.775C33.2374 19.35 30.7374 17.4 29.9624 15.075C29.7124 14.3375 29.6874 12.8625 29.9124 12.25C30.4999 10.625 31.4374 9.96249 33.6624 9.62499C34.1249 9.56249 34.8749 9.43749 35.3374 9.37499C35.7999 9.29999 36.6374 9.07499 37.1874 8.86249C37.7374 8.64999 38.4749 8.37499 38.8124 8.24999C39.1624 8.12499 39.8874 7.84999 40.4374 7.64999C45.0999 5.91249 46.8124 5.31249 47.5624 5.12499L48.4374 4.91249L47.6874 4.69999C47.2749 4.57499 46.7749 4.42499 46.5624 4.36249C45.9749 4.18749 44.0249 3.99999 42.9999 4.01249C42.4874 4.02499 41.2749 4.11249 40.3124 4.19999Z" fill="white"/>
    <path d="M62.6875 5.2C62.35 5.3625 61.9875 5.4875 61.9 5.5C61.8125 5.5 61.65 5.55 61.525 5.6125C60.9125 5.9375 58.725 6.3125 56.3125 6.5C52.4375 6.8125 50.2375 7.025 49.375 7.2C48.3125 7.4125 46.75 7.8625 46.5625 8C46.5 8.05 46.2375 8.1625 46 8.225C45.7625 8.3 45.25 8.475 44.875 8.625C44.5 8.775 43.9625 8.9625 43.6875 9.05C43.4125 9.15 41.725 9.7625 39.95 10.425C37.4625 11.35 36.4625 11.6625 35.7 11.7625C34.1125 11.95 32.825 12.2625 32.5 12.525C32.275 12.7 32.2 12.925 32.15 13.4375C32.075 14.2875 32.4375 15.0375 33.3 15.8625C34.3 16.8 35.4375 17.25 37.6 17.55C37.875 17.5875 38.825 17.475 43.0625 16.875C44.1 16.7375 45.45 16.5625 46.0625 16.4875C48.975 16.175 50.65 16.85 54.45 19.9C55.3375 20.6125 56.7625 21.7625 57.625 22.45C58.4875 23.1375 61.0125 25.1625 63.2375 26.9375C68.925 31.5125 70.2 32.5 70.375 32.5C70.75 32.5 73.65 31.0375 75 30.1625C76.55 29.15 78.5125 27.4625 79.1375 26.6L79.3875 26.25L76.175 21.975C74.4 19.6125 70.8375 14.875 68.2625 11.4375C65.7 8 63.525 5.125 63.45 5.0375C63.35 4.9375 63.1625 4.975 62.6875 5.2Z" fill="white"/>
    <path d="M14.6625 28.825C14.2625 29.025 13.7 29.5875 11.3875 32.0875C9.9625 33.625 9.7875 33.8875 9.6125 34.6875C9.5 35.2 9.5125 35.4625 9.6875 36.1125C10.0375 37.475 10.8 38.375 12.125 38.975C12.95 39.3625 14.2125 39.4125 14.825 39.0875C15.2375 38.875 18.9875 34.9125 19.4 34.2625C19.7125 33.775 19.825 32.5625 19.6375 31.8C19.3 30.4875 18.2125 29.375 16.775 28.8875C15.85 28.575 15.2125 28.5625 14.6625 28.825Z" fill="white"/>
    <path d="M22.3125 35.625C22.175 35.675 21.8875 35.8 21.6625 35.875C21.225 36.0375 21.0625 36.1875 19.625 37.7C16.875 40.5875 16.625 40.9625 16.625 42.2C16.625 43.5875 17.7125 45.15 19.1625 45.825C19.65 46.05 20.025 46.125 20.6625 46.125C21.6625 46.125 22.225 45.9 22.7125 45.325C22.8875 45.1125 23.6875 44.2375 24.4875 43.4C25.2875 42.55 26.1375 41.575 26.375 41.225C26.7875 40.6375 26.8125 40.55 26.8125 39.5875C26.8125 38.425 26.5875 37.875 25.775 36.975C25.2125 36.35 24.6375 35.9875 23.7875 35.7125C23.0875 35.4875 22.7 35.4625 22.3125 35.625Z" fill="white"/>
    <path d="M28.8125 42.5625C28.5 42.7 26.4875 44.7125 24.5876 46.8C22.9751 48.55 23.7126 51.425 26.075 52.625C26.55 52.8625 26.8875 52.9375 27.5625 52.9375C28.9375 52.9375 29.225 52.75 31.325 50.4875C33.525 48.1 33.525 48.0875 33.8125 47.3375C34.3125 46.025 33.4375 43.9625 31.9875 43.0625C31.0125 42.4375 29.5875 42.225 28.8125 42.5625Z" fill="white"/>
    <path d="M33.9 51.275C33.375 51.8375 32.5 52.75 31.975 53.3C31.0875 54.225 31 54.3625 31 54.825C31 55.525 31.6375 56.7625 32.25 57.25C33.0875 57.9125 33.8 58.1625 34.725 58.1L35.55 58.05L36.775 56.7375C38.2875 55.1375 38.5625 54.6375 38.4625 53.625C38.4 52.8625 38.175 52.425 37.45 51.65C36.95 51.1125 36.4375 50.8 35.5625 50.5L34.8625 50.2625L33.9 51.275Z" fill="white"/>
  </g>
  <defs>
    <filter id="filter0_d" x="0.0625" y="0.0767822" width="89.9434" height="67.5052" filterUnits="userSpaceOnUse" color-interpolation-filters="sRGB">
      <feFlood flood-opacity="0" result="BackgroundImageFix"/>
      <feColorMatrix in="SourceAlpha" type="matrix" values="0 0 0 0 0 0 0 0 0 0 0 0 0 0 0 0 0 0 127 0"/>
      <feOffset dy="4"/>
      <feGaussianBlur stdDeviation="2"/>
      <feColorMatrix type="matrix" values="0 0 0 0 0 0 0 0 0 0 0 0 0 0 0 0 0 0 0.25 0"/>
      <feBlend mode="normal" in2="BackgroundImageFix" result="effect1_dropShadow"/>
      <feBlend mode="normal" in="SourceGraphic" in2="effect1_dropShadow" result="shape"/>
    </filter>
  </defs>
</svg>
