<svg width="520" height="271" viewBox="0 0 520 271" fill="none" xmlns="http://www.w3.org/2000/svg">
  <g filter="url(#filter0_d)">
    <path d="M514.994 109.266L514.692 108.743C491.829 69.1496 441.674 55.0876 400.511 76.726L336.916 109.747C337.181 112.494 337.432 115.515 337.432 116.94C337.432 140.169 324.434 162.683 304.316 174.298C295.229 179.545 285.323 182.162 275.244 182.162C264.418 182.162 253.393 179.144 242.961 173.12C242.777 173.014 242.596 172.904 242.417 172.79L187.801 138.092C180.818 133.655 178.753 124.397 183.19 117.413C187.627 110.43 196.886 108.366 203.869 112.802L258.199 147.32C271.894 155.114 282.683 152.192 289.336 148.351C297.653 143.55 303.862 135.006 306.314 125.638L306.294 125.648C308.767 112.303 304.098 97.7951 288.454 88.7636L226.637 53.0742C220.624 48.7018 213.241 46.1141 205.282 46.1141H122.871V187.655H132.432L251.074 256.294C258.507 260.593 266.214 262.748 273.65 262.748C280.634 262.748 287.38 260.849 293.438 257.041L512.495 119.358C515.906 117.212 517.011 112.755 514.994 109.266V109.266Z" fill="white"/>
    <path d="M77.9266 0H18.9809C10.7074 0 4 6.70743 4 14.9809V223.587C4 231.861 10.7074 238.568 18.9809 238.568H77.9266C86.2 238.568 92.9074 231.861 92.9074 223.587V14.9809C92.9074 6.70743 86.201 0 77.9266 0Z" fill="white"/>
  </g>
  <defs>
    <filter id="filter0_d" x="0" y="0" width="520.001" height="270.748" filterUnits="userSpaceOnUse" color-interpolation-filters="sRGB">
      <feFlood flood-opacity="0" result="BackgroundImageFix"/>
      <feColorMatrix in="SourceAlpha" type="matrix" values="0 0 0 0 0 0 0 0 0 0 0 0 0 0 0 0 0 0 127 0"/>
      <feOffset dy="4"/>
      <feGaussianBlur stdDeviation="2"/>
      <feColorMatrix type="matrix" values="0 0 0 0 0 0 0 0 0 0 0 0 0 0 0 0 0 0 0.25 0"/>
      <feBlend mode="normal" in2="BackgroundImageFix" result="effect1_dropShadow"/>
      <feBlend mode="normal" in="SourceGraphic" in2="effect1_dropShadow" result="shape"/>
    </filter>
  </defs>
</svg>
