<svg width="387" height="387" viewBox="0 0 387 387" fill="none" xmlns="http://www.w3.org/2000/svg">
  <g filter="url(#filter0_d)">
    <path d="M327.5 55.5C253.5 -18.5 133.5 -18.5 59.5 55.5C-14.5 129.5 -14.5 249.5 59.5 323.5C133.5 397.5 253.5 397.5 327.5 323.5C401.5 249.5 401.5 129.5 327.5 55.5ZM276.3 201.1L217.1 235.1L159.1 268.7C157.1 270.3 154.3 271.1 151.5 271.1C143.9 271.1 137.9 265.1 137.9 257.5V189.5V121.1C137.9 118.7 138.3 116.7 139.5 114.3C143.1 107.9 151.5 105.5 157.9 109.5L216.3 143.1C216.7 143.1 216.7 143.5 217.1 143.5L276.3 177.5C278.3 178.7 279.9 180.3 281.5 182.3C285.1 189.1 282.7 197.5 276.3 201.1Z" fill="white"/>
  </g>
  <defs>
    <filter id="filter0_d" x="0" y="0" width="387" height="387" filterUnits="userSpaceOnUse" color-interpolation-filters="sRGB">
      <feFlood flood-opacity="0" result="BackgroundImageFix"/>
      <feColorMatrix in="SourceAlpha" type="matrix" values="0 0 0 0 0 0 0 0 0 0 0 0 0 0 0 0 0 0 127 0"/>
      <feOffset dy="4"/>
      <feGaussianBlur stdDeviation="2"/>
      <feColorMatrix type="matrix" values="0 0 0 0 0 0 0 0 0 0 0 0 0 0 0 0 0 0 0.25 0"/>
      <feBlend mode="normal" in2="BackgroundImageFix" result="effect1_dropShadow"/>
      <feBlend mode="normal" in="SourceGraphic" in2="effect1_dropShadow" result="shape"/>
    </filter>
  </defs>
</svg>
