<svg width="387" height="387" viewBox="0 0 387 387" fill="none" xmlns="http://www.w3.org/2000/svg">
  <g filter="url(#filter0_d)">
    <path d="M327.5 55.5C253.5 -18.5 133.5 -18.5 59.5 55.5C-14.5 129.5 -14.5 249.5 59.5 323.5C133.5 397.5 253.5 397.5 327.5 323.5C401.5 249.5 401.5 129.5 327.5 55.5ZM171.5 231.5C171.5 247.5 158.7 260.3 142.7 260.3C126.7 260.3 113.9 247.5 113.9 231.5V147.5C113.9 131.5 126.7 118.7 142.7 118.7C158.7 118.7 171.5 131.5 171.5 147.5V231.5ZM273.5 231.5C273.5 247.5 260.7 260.3 244.7 260.3C228.7 260.3 215.9 247.5 215.9 231.5V147.5C215.9 131.5 228.7 118.7 244.7 118.7C260.7 118.7 273.5 131.5 273.5 147.5V231.5Z" fill="white"/>
  </g>
  <defs>
    <filter id="filter0_d" x="0" y="0" width="387" height="387" filterUnits="userSpaceOnUse" color-interpolation-filters="sRGB">
      <feFlood flood-opacity="0" result="BackgroundImageFix"/>
      <feColorMatrix in="SourceAlpha" type="matrix" values="0 0 0 0 0 0 0 0 0 0 0 0 0 0 0 0 0 0 127 0"/>
      <feOffset dy="4"/>
      <feGaussianBlur stdDeviation="2"/>
      <feColorMatrix type="matrix" values="0 0 0 0 0 0 0 0 0 0 0 0 0 0 0 0 0 0 0.25 0"/>
      <feBlend mode="normal" in2="BackgroundImageFix" result="effect1_dropShadow"/>
      <feBlend mode="normal" in="SourceGraphic" in2="effect1_dropShadow" result="shape"/>
    </filter>
  </defs>
</svg>
