<svg width="177" height="177" viewBox="0 0 177 177" fill="none" xmlns="http://www.w3.org/2000/svg">
  <g filter="url(#filter0_d)">
    <path d="M56.7429 89.4512H48.8906C46.1589 89.4512 43.9395 91.6706 43.9395 94.4023C43.9395 97.1341 46.1589 99.3535 48.8906 99.3535H66.6452L56.7429 89.4512Z" fill="white"/>
    <path d="M86.4499 89.4512H70.7454L80.6478 99.3535H96.3522L86.4499 89.4512Z" fill="white"/>
    <path d="M88.5 0C67.0727 0 47.5518 8.44472 32.6779 21.6766L51.2949 40.2936C60.5609 33.768 73.1098 30.0371 88.5 30.0371C122.094 30.0371 142.963 47.1101 142.963 74.5977C142.963 78.4157 141.475 81.866 139.1 84.5C141.475 87.134 142.963 90.5843 142.963 94.4023C142.963 96.6918 142.399 98.8356 141.471 100.774C142.388 101.673 142.963 102.918 142.963 104.305C142.963 111.869 139.479 118.569 134.114 123.113L151.323 140.322C164.555 125.448 173 105.927 173 84.5C173 38.0877 134.912 0 88.5 0Z" fill="white"/>
    <path d="M50.8731 53.8743C46.7214 58.8394 43.9395 65.4997 43.9395 74.5976C43.9395 77.3293 46.1589 79.5488 48.8906 79.5488H76.5475L50.8731 53.8743Z" fill="white"/>
    <path d="M88.5 39.9395C82.5589 39.9395 68.9868 40.7656 58.3682 47.3669L90.5501 79.5488H128.109C130.841 79.5488 133.061 77.3294 133.061 74.5977C133.061 42.4391 98.9536 39.9395 88.5 39.9395Z" fill="white"/>
    <path d="M128.109 109.256H120.257L127.12 116.119C129.42 114.379 131.232 112.023 132.215 109.256H128.109Z" fill="white"/>
    <path d="M124.994 127.995C122.823 128.619 120.576 129.061 118.207 129.061H58.793C45.1432 129.061 34.0371 117.954 34.0371 104.305C34.0371 102.918 34.6118 101.673 35.5294 100.774C34.6006 98.8356 34.0371 96.6918 34.0371 94.4024C34.0371 90.5843 35.5251 87.134 37.9003 84.5C35.5251 81.866 34.0371 78.4157 34.0371 74.5977C34.0371 63.4744 37.602 54.1691 43.8965 46.8978L25.6766 28.6779C12.4447 43.5518 4 63.0727 4 84.5C4 130.912 42.0877 169 88.5 169C109.927 169 129.448 160.555 144.322 147.323L124.994 127.995Z" fill="white"/>
    <path d="M106.255 109.256H44.7855C46.8306 115.019 52.338 119.158 58.793 119.158H116.157L106.255 109.256Z" fill="white"/>
    <path d="M128.109 89.4512H100.452L110.355 99.3535H128.109C130.841 99.3535 133.061 97.1341 133.061 94.4023C133.061 91.6706 130.841 89.4512 128.109 89.4512Z" fill="white"/>
  </g>
  <defs>
    <filter id="filter0_d" x="0" y="0" width="177" height="177" filterUnits="userSpaceOnUse" color-interpolation-filters="sRGB">
      <feFlood flood-opacity="0" result="BackgroundImageFix"/>
      <feColorMatrix in="SourceAlpha" type="matrix" values="0 0 0 0 0 0 0 0 0 0 0 0 0 0 0 0 0 0 127 0"/>
      <feOffset dy="4"/>
      <feGaussianBlur stdDeviation="2"/>
      <feColorMatrix type="matrix" values="0 0 0 0 0 0 0 0 0 0 0 0 0 0 0 0 0 0 0.25 0"/>
      <feBlend mode="normal" in2="BackgroundImageFix" result="effect1_dropShadow"/>
      <feBlend mode="normal" in="SourceGraphic" in2="effect1_dropShadow" result="shape"/>
    </filter>
  </defs>
</svg>
