<svg width="116" height="114" viewBox="0 0 116 114" fill="none" xmlns="http://www.w3.org/2000/svg">
  <g filter="url(#filter0_d)">
    <path d="M104.756 1.28029C102.552 1.41388 102.218 1.44728 100.637 1.68107C100.236 1.73673 99.3342 1.85919 98.6328 1.94826C97.9315 2.04845 97.1299 2.17091 96.8516 2.22658C96.5732 2.27111 96.0277 2.38244 95.627 2.44923C93.7678 2.78322 90.1162 3.66271 89.8602 3.85197C89.8045 3.88536 90.1385 5.21017 90.3723 5.95607C92.3316 11.9678 97.0631 16.7549 103.041 18.7588C103.932 19.0594 105.313 19.4045 105.368 19.3488C105.557 19.1484 106.515 15.0293 106.971 12.4131C107.595 8.95079 108.096 4.03009 108.096 1.50294V1.11329L107.572 1.12443C107.272 1.13556 106.014 1.20236 104.756 1.28029Z" fill="white"/>
    <path d="M86.2753 4.88729C85.8189 5.05428 84.8949 5.37713 84.2158 5.61092C83.5478 5.83358 82.8353 6.10077 82.6349 6.18983C82.4457 6.27889 82.2564 6.34569 82.223 6.34569C82.1896 6.34569 81.9001 6.46815 81.5773 6.61287C81.2544 6.7576 80.4083 7.11385 79.707 7.4033C74.7306 9.44061 69.0083 12.7248 64.0097 16.432C58.5324 20.4955 53.3779 25.5053 48.8914 31.1607C46.6871 33.9328 45.5626 35.5137 43.0578 39.4101C42.4789 40.3119 40.7978 43.1953 39.9294 44.7762C39.1501 46.1789 36.4003 51.7676 36.4003 51.9346C36.4003 51.9568 36.2333 52.3353 36.0218 52.7918C35.8103 53.2371 35.4541 54.0498 35.2314 54.6064C34.9976 55.1519 34.7193 55.8199 34.608 56.0871C34.4855 56.3432 34.2406 57 34.0513 57.5344C33.8732 58.0687 33.6728 58.6031 33.6171 58.7256C33.5726 58.848 33.3945 59.3267 33.2275 59.7832C32.8601 60.8185 32.515 61.776 32.3925 62.0654C32.348 62.1879 32.2367 62.4551 32.1587 62.6555L32.0251 63.034L39.0945 70.1033L46.175 77.1838L46.7761 76.95C47.099 76.8275 47.8671 76.5381 48.4794 76.3154C49.0917 76.0928 49.8488 75.8256 50.1494 75.7031C50.4611 75.5918 51.1847 75.3135 51.7636 75.1019C53.1552 74.5898 55.4041 73.6658 56.406 73.1871C56.8513 72.9756 57.2298 72.8086 57.2632 72.8086C57.497 72.8086 63.2861 69.914 65.1787 68.8564C67.7949 67.3869 68.808 66.7857 71.2015 65.2271C81.6107 58.4918 90.4167 49.6189 96.4841 39.7441C96.9183 39.0428 97.3748 38.2857 97.4972 38.0742C97.6197 37.8627 97.9982 37.1836 98.3544 36.5713C99.3564 34.8123 101.082 31.2721 101.861 29.3906C102.251 28.4443 102.696 27.3422 102.863 26.9414C103.03 26.5406 103.275 25.9172 103.398 25.5498C104.233 23.2008 104.622 21.9984 104.589 21.9316C104.567 21.8871 104.255 21.798 103.899 21.7201C102.117 21.3305 99.5011 20.2617 97.7755 19.2041C94.6917 17.3226 91.8751 14.5283 90.0494 11.5224C88.9361 9.6744 87.9675 7.34764 87.5111 5.41053C87.4109 4.98748 87.2773 4.63123 87.2216 4.60897C87.1548 4.59784 86.7318 4.7203 86.2753 4.88729ZM74.9533 26.9414C79.5623 27.6094 82.8576 31.8844 82.2787 36.4488C82.0671 38.1187 81.5773 39.3322 80.5419 40.6904C78.0371 43.9857 73.3947 44.9877 69.6986 43.0172C68.307 42.2824 66.9265 40.9019 66.1917 39.5103C64.2658 35.8922 65.1564 31.4168 68.307 28.8228C70.155 27.2865 72.5931 26.6074 74.9533 26.9414Z" fill="white"/>
    <path d="M38.0703 33.3427C34.6525 33.699 30.7894 34.6341 28.4515 35.6695C28.1398 35.8142 27.7056 35.9923 27.4941 36.0703C25.9133 36.6714 22.5289 38.642 20.5361 40.1226C18.098 41.9373 15.2814 44.6537 13.3888 47.0361C12.7988 47.7709 12.1308 48.5947 11.9082 48.873C11.1178 49.8416 8.81326 53.4041 7.84471 55.1631C6.90955 56.8441 5.56248 59.4826 5.56248 59.605C5.56248 59.6607 4.60506 61.7091 4.47146 61.9429C4.40467 62.0654 4.50486 62.0097 5.67381 61.2304C9.4701 58.6922 15.2814 55.9089 18.9219 54.8847C19.2002 54.8068 19.5453 54.7066 19.7012 54.6509C20.0685 54.5173 21.9277 54.1166 22.7627 53.983C26.0246 53.4709 29.665 53.5711 31.8582 54.2502C32.2478 54.3726 32.4148 54.3838 32.4816 54.2836C32.5373 54.2168 33.0717 53.0367 33.6728 51.6562C34.8418 48.9621 37.3912 43.8744 38.549 41.9039C38.9387 41.2359 39.473 40.3007 39.7514 39.822C40.0185 39.3433 41.0539 37.7179 42.0447 36.2039C43.0355 34.6898 43.8037 33.4095 43.7592 33.365C43.5922 33.198 39.551 33.1869 38.0703 33.3427Z" fill="white"/>
    <path d="M27.4941 64.0693L26.6703 64.9043L35.4875 73.7215L44.3047 82.5498L45.1396 81.7148C45.5961 81.2584 45.9746 80.8354 45.9746 80.7686C45.9746 80.6238 28.5851 63.2344 28.4404 63.2344C28.3736 63.2344 27.9506 63.6129 27.4941 64.0693Z" fill="white"/>
    <path d="M73.1944 67.0306C71.8473 67.9435 70.4668 68.8341 70.1329 69.0234C69.3424 69.4576 68.7969 69.7693 67.2383 70.6933C65.9358 71.4615 60.2024 74.4117 59.3897 74.7234C59.1448 74.8236 58.6549 75.0351 58.3098 75.191C57.2411 75.6697 56.5286 75.9925 55.7715 76.3154C54.803 76.7384 54.7584 76.783 54.8809 77.1058C54.9366 77.2506 55.1036 77.9185 55.2372 78.5754C55.4598 79.6107 55.4932 80.1006 55.4932 82.2715C55.4932 85.0547 55.393 85.923 54.803 88.3945C54.4245 89.9754 53.634 92.5136 53.2221 93.4377C52.9772 93.9943 52.5208 95.0965 52.3204 95.6197C51.7415 97.0892 49.0473 101.954 47.7336 103.903C47.4887 104.259 47.3106 104.582 47.344 104.604C47.3774 104.637 47.934 104.403 48.5909 104.092C49.2477 103.791 49.8043 103.535 49.8266 103.535C49.9045 103.535 52.0086 102.478 52.7211 102.088C53.0774 101.887 53.7231 101.531 54.135 101.297C54.5581 101.053 54.9254 100.863 54.9477 100.863C54.9811 100.863 56.0053 100.206 57.2299 99.416C64.9338 94.4174 70.0549 88.7062 73.1276 81.6925C74.6639 78.1968 75.4766 74.9572 75.8774 70.8158C76.1112 68.4111 76.0221 65.3162 75.7104 65.3607C75.677 65.3607 74.5414 66.1177 73.1944 67.0306Z" fill="white"/>
    <path d="M16.8623 67.0863C16.3613 67.3312 6.03007 77.6847 5.77401 78.1969C5.64042 78.4418 5.57362 78.7312 5.60702 78.876C5.79628 79.633 6.62011 80.0226 7.28808 79.6664C7.87811 79.3435 18.4431 68.6783 18.4988 68.3443C18.5879 67.8767 18.2873 67.2867 17.8642 67.0863C17.4078 66.8637 17.2853 66.8637 16.8623 67.0863Z" fill="white"/>
    <path d="M26.8261 72.4189C25.8131 73.4432 24.9781 74.2781 24.967 74.3004C24.9558 74.3115 27.1824 76.5603 29.9211 79.299L34.8974 84.2754L36.7677 82.4051L38.6269 80.5459L33.6394 75.5584L28.6519 70.5709L26.8261 72.4189Z" fill="white"/>
    <path d="M17.7529 78.0299C17.5747 78.1412 15.1033 80.5682 12.2755 83.407C7.06536 88.6283 7.05423 88.6395 7.10989 89.3408C7.13216 89.6525 7.87805 90.2871 8.21204 90.2871C8.35677 90.2871 8.61282 90.1869 8.76868 90.0756C9.10266 89.8418 19.2224 79.7221 19.3783 79.4771C19.4339 79.3881 19.4784 79.1543 19.4784 78.9428C19.4784 78.6533 19.3894 78.4863 19.0777 78.1969C18.6212 77.7627 18.2538 77.7182 17.7529 78.0299Z" fill="white"/>
    <path d="M23.876 83.8746C23.4196 84.0861 7.83365 99.7277 7.67779 100.128C7.4106 100.852 8.36802 101.798 9.09165 101.52C9.55923 101.353 25.2454 85.6447 25.3901 85.1994C25.5348 84.7429 25.301 84.2531 24.7889 83.9414C24.377 83.6853 24.3213 83.6742 23.876 83.8746Z" fill="white"/>
    <path d="M29.5426 89.9754C28.9748 90.3873 19.5898 99.7834 19.2447 100.273C19.0666 100.529 18.9219 100.852 18.9219 101.008C18.9219 101.331 19.5676 102.077 19.8682 102.099C20.5695 102.155 20.5807 102.144 25.8576 96.8777C28.7299 94.0166 31.1457 91.5451 31.2348 91.3781C31.4797 90.8994 31.424 90.5654 31.0121 90.1312C30.5668 89.6525 30.0436 89.5969 29.5426 89.9754Z" fill="white"/>
    <path d="M40.8535 90.7101C40.5195 90.7547 29.6873 101.52 29.4869 101.999C29.3088 102.433 29.4535 103.034 29.7986 103.312C30.2439 103.658 30.5334 103.691 31.0121 103.446C31.2682 103.312 33.7062 100.941 36.8012 97.8351C42.5902 92.0238 42.5012 92.1351 42.1338 91.3447C42.0225 91.1332 41.9334 90.9551 41.9111 90.9551C41.9 90.9551 41.7107 90.8883 41.5103 90.8103C41.2988 90.7324 41.0094 90.6879 40.8535 90.7101Z" fill="white"/>
  </g>
  <defs>
    <filter id="filter0_d" x="-2" y="0" width="122" height="122" filterUnits="userSpaceOnUse" color-interpolation-filters="sRGB">
      <feFlood flood-opacity="0" result="BackgroundImageFix"/>
      <feColorMatrix in="SourceAlpha" type="matrix" values="0 0 0 0 0 0 0 0 0 0 0 0 0 0 0 0 0 0 127 0"/>
      <feOffset dy="4"/>
      <feGaussianBlur stdDeviation="2"/>
      <feColorMatrix type="matrix" values="0 0 0 0 0 0 0 0 0 0 0 0 0 0 0 0 0 0 0.25 0"/>
      <feBlend mode="normal" in2="BackgroundImageFix" result="effect1_dropShadow"/>
      <feBlend mode="normal" in="SourceGraphic" in2="effect1_dropShadow" result="shape"/>
    </filter>
  </defs>
</svg>
