<svg width="188" height="200" viewBox="0 0 188 200" fill="none" xmlns="http://www.w3.org/2000/svg">
  <path d="M147.935 120.762C137.47 120.762 127.926 124.822 120.852 131.436L93.5604 114.943C95.1091 110.255 95.9463 105.274 95.9463 100.042C95.9463 94.8514 95.1091 89.8284 93.5604 85.1402L120.894 68.6061C127.968 75.2198 137.512 79.28 147.976 79.28C169.868 79.28 187.616 61.532 187.616 39.64C187.616 17.748 169.868 0 147.976 0C126.084 0 108.336 17.748 108.336 39.64C108.336 43.2817 108.839 46.8397 109.76 50.1884L82.426 66.7225C73.7613 57.8066 61.5805 52.2394 48.1439 52.2394C21.773 52.2394 0.383301 73.6291 0.383301 100C0.383301 126.371 21.773 147.761 48.1439 147.761C61.5805 147.761 73.7194 142.193 82.426 133.278L109.76 149.812C108.839 153.16 108.336 156.718 108.336 160.36C108.336 182.252 126.084 200 147.976 200C169.868 200 187.616 182.252 187.616 160.36C187.616 138.468 169.827 120.762 147.935 120.762ZM32.5725 100.042C32.5725 103.977 29.3913 107.158 25.4566 107.158C21.5219 107.158 18.3406 103.977 18.3406 100.042C18.3406 83.5915 31.7353 70.1967 48.1857 70.1967C52.1204 70.1967 55.3017 73.378 55.3017 77.3127C55.3017 81.2474 52.1204 84.4286 48.1857 84.4286C39.5629 84.4705 32.5725 91.4609 32.5725 100.042Z" fill="white"/>
</svg>
