<svg width="79" height="76" viewBox="0 0 79 76" fill="none" xmlns="http://www.w3.org/2000/svg">
  <g filter="url(#filter0_d)">
    <path d="M27.8525 0.919912C26.9736 1.13964 23.9853 2.47265 22.5497 3.27831C20.953 4.17187 19.1806 5.34374 18.0234 6.26659C16.1777 7.71679 15.7382 9.32811 16.5292 11.7012C17.0419 13.2246 17.1738 15.6269 16.8222 17.0332C15.9579 20.5195 13.0868 23.2148 9.55657 23.8594C8.86809 23.9912 8.01848 24.1963 7.65227 24.3281C6.77336 24.6357 5.70403 25.6611 5.32317 26.5693C4.29778 28.957 4.07805 37.0137 4.95696 40.1338C5.22063 41.0859 6.36321 42.3896 7.22746 42.7266C7.56438 42.8584 8.39934 43.0781 9.08782 43.1953C12.0907 43.7226 14.537 45.4951 15.8554 48.1172C17.0712 50.5488 17.1884 52.834 16.2216 55.6172C15.7382 57.0088 15.6796 57.331 15.7382 58.1807C15.7822 58.7519 15.9433 59.3965 16.1191 59.748C16.9833 61.4473 21.9052 64.7578 26.0947 66.4717C28.0722 67.2773 28.9511 67.4092 30.123 67.0723C31.0019 66.8086 31.0898 66.75 33.5214 64.1719C35.1327 62.4873 37.3739 61.5644 39.9374 61.5644C41.4755 61.5644 42.6474 61.8428 44.1269 62.5605C45.0351 62.9853 45.4892 63.3662 46.7782 64.6699C49.5761 67.5264 50.6308 67.6143 54.9814 65.4023C57.1786 64.3037 59.8007 62.6045 61.3241 61.3154C63.1991 59.7334 63.58 58.2539 62.7597 55.6904C61.9101 53.0244 62.0419 50.8564 63.1698 48.5566C64.5468 45.8027 66.8759 44.1035 70.1571 43.4736C71.9003 43.1367 72.9696 42.3603 73.5849 40.9834C74.2148 39.5478 74.6396 35.1387 74.4345 31.9453C74.2001 28.0781 73.7167 26.3789 72.6327 25.4121C71.871 24.7529 71.4169 24.5478 70.1132 24.2842C66.7148 23.6103 64.078 21.2959 62.9355 17.9853C62.3642 16.3447 62.3642 14.1621 62.9355 12.3603C63.7411 9.76757 63.3017 8.24413 61.2948 6.61815C58.8193 4.62597 55.4941 2.66308 52.4765 1.43261C49.8544 0.363272 48.2431 0.700186 46.4999 2.66308C45.3866 3.90819 43.9364 4.90429 42.5155 5.41698C41.1972 5.88573 38.8534 6.04687 37.5497 5.7539C35.5575 5.31444 33.7558 4.23046 32.3349 2.61913C31.0605 1.16894 29.3905 0.539053 27.8525 0.919912ZM42.164 22.5996C44.3173 23.1123 46.0019 24.0351 47.6132 25.5879C49.9277 27.8144 51.1581 30.7148 51.1581 33.9961C51.1581 37.3213 50.0595 39.9726 47.6425 42.3896C45.4452 44.6016 42.662 45.7441 39.4394 45.7441C32.8915 45.7441 27.7206 40.5879 27.7206 34.0547C27.7206 28.5029 31.2948 23.9619 36.7294 22.5849C38.1796 22.2187 40.6259 22.2187 42.164 22.5996Z" fill="white"/>
  </g>
  <defs>
    <filter id="filter0_d" x="0.40918" y="0.810974" width="78.0774" height="74.4344" filterUnits="userSpaceOnUse" color-interpolation-filters="sRGB">
      <feFlood flood-opacity="0" result="BackgroundImageFix"/>
      <feColorMatrix in="SourceAlpha" type="matrix" values="0 0 0 0 0 0 0 0 0 0 0 0 0 0 0 0 0 0 127 0"/>
      <feOffset dy="4"/>
      <feGaussianBlur stdDeviation="2"/>
      <feColorMatrix type="matrix" values="0 0 0 0 0 0 0 0 0 0 0 0 0 0 0 0 0 0 0.25 0"/>
      <feBlend mode="normal" in2="BackgroundImageFix" result="effect1_dropShadow"/>
      <feBlend mode="normal" in="SourceGraphic" in2="effect1_dropShadow" result="shape"/>
    </filter>
  </defs>
</svg>
