<svg width="421" height="469" viewBox="0 0 421 469" fill="none" xmlns="http://www.w3.org/2000/svg">
  <g filter="url(#filter0_d)">
    <path d="M210.267 0C144.438 0 90.6263 53.812 90.6263 119.641C90.6263 185.47 144.438 239.282 210.267 239.282C276.096 239.282 329.908 185.47 329.908 119.641C329.908 53.812 276.096 0 210.267 0Z" fill="white"/>
    <path d="M415.59 334.89C412.455 327.053 408.276 319.739 403.574 312.947C379.541 277.42 342.448 253.91 300.652 248.163C295.428 247.641 289.681 248.685 285.501 251.82C263.558 268.016 237.436 276.375 210.268 276.375C183.1 276.375 156.978 268.016 135.035 251.82C130.855 248.685 125.108 247.118 119.884 248.163C78.0883 253.91 40.4723 277.42 16.9623 312.947C12.2603 319.739 8.08028 327.576 4.94628 334.89C3.37928 338.025 3.90127 341.682 5.46827 344.817C9.64827 352.131 14.8723 359.446 19.5743 365.715C26.8883 375.642 34.7253 384.523 43.6073 392.882C50.9213 400.196 59.2803 406.988 67.6403 413.78C108.913 444.605 158.546 460.8 209.746 460.8C260.946 460.8 310.579 444.604 351.852 413.78C360.211 407.511 368.57 400.196 375.885 392.882C384.244 384.523 392.603 375.641 399.918 365.715C405.142 358.923 409.845 352.131 414.024 344.817C416.635 341.682 417.157 338.024 415.59 334.89Z" fill="white"/>
  </g>
  <defs>
    <filter id="filter0_d" x="0" y="0" width="420.472" height="468.8" filterUnits="userSpaceOnUse" color-interpolation-filters="sRGB">
      <feFlood flood-opacity="0" result="BackgroundImageFix"/>
      <feColorMatrix in="SourceAlpha" type="matrix" values="0 0 0 0 0 0 0 0 0 0 0 0 0 0 0 0 0 0 127 0"/>
      <feOffset dy="4"/>
      <feGaussianBlur stdDeviation="2"/>
      <feColorMatrix type="matrix" values="0 0 0 0 0 0 0 0 0 0 0 0 0 0 0 0 0 0 0.25 0"/>
      <feBlend mode="normal" in2="BackgroundImageFix" result="effect1_dropShadow"/>
      <feBlend mode="normal" in="SourceGraphic" in2="effect1_dropShadow" result="shape"/>
    </filter>
  </defs>
</svg>
