<svg width="491" height="491" viewBox="0 0 491 491" fill="none" xmlns="http://www.w3.org/2000/svg">
  <g filter="url(#filter0_d)">
    <path d="M234.17 0.124882C195.382 1.98634 158.228 12.8281 124.998 31.9961C110.786 40.1966 97.1769 50.0573 84.4989 61.3518C80.1219 65.2509 69.3556 75.992 65.4818 80.3689C31.9252 118.076 11.3736 163.657 5.63832 213.086C-1.83268 277.709 16.4298 341.653 56.7027 391.912C62.7399 399.459 67.4942 404.716 74.8142 412.036C82.1595 419.381 87.442 424.161 94.9381 430.147C144.267 469.666 206.651 487.979 270.268 481.564C317.534 476.81 361.53 458.472 398.683 428.034C410.003 418.752 422.882 405.873 432.164 394.553C465.671 353.652 484.336 304.876 486.725 252.051C489.04 200.433 474.827 149.545 446.201 107.033C437.145 93.5752 427.989 82.4819 416.166 70.6843C403.991 58.5093 392.797 49.3027 379.062 40.1463C343.77 16.6516 304.554 3.39502 261.463 0.37643C256.357 0.0242622 239.604 -0.126667 234.17 0.124882ZM254.168 12.7023C271.878 13.4318 288.253 15.9221 305.057 20.4249C307.421 21.0537 309.383 21.6575 309.383 21.7581C309.383 21.8838 305.937 26.1099 301.711 31.166C282.065 54.7361 267.853 73.4262 264.306 80.2432C263.853 81.1487 263.4 81.8782 263.3 81.8782C263.199 81.8782 261.79 80.6708 260.155 79.1867C247.804 68.0179 239.176 63.6158 227.504 62.509C218.625 61.6789 206.55 62.8108 173.799 67.5148C168.189 68.3197 163.586 68.9738 163.561 68.9486C163.535 68.9235 165.12 67.5903 167.082 65.9803C176.742 58.0566 192.589 43.3661 214.273 22.2612C219.027 17.6327 223.102 13.7588 223.329 13.6834C223.907 13.457 231.227 12.9287 236.434 12.7023C243.251 12.4256 247.603 12.4256 254.168 12.7023ZM177.169 27.2167C161.246 46.7369 143.688 67.9424 143.386 68.0682C143.16 68.1437 137.223 69.4517 130.155 70.9359C123.112 72.42 111.616 74.86 104.623 76.3442C97.6297 77.8283 91.8944 79.0357 91.8692 79.0106C91.7938 78.9351 94.108 77.5264 152.669 41.6304C165.598 33.7066 176.591 26.94 177.069 26.613C177.547 26.3111 177.974 26.0344 178.05 26.0344C178.1 26.0344 177.698 26.5627 177.169 27.2167ZM331.419 29.2794C349.656 36.8007 365.554 45.7307 381.326 57.3271C382.634 58.283 383.792 59.1382 383.917 59.2388C384.018 59.3143 383.716 60.6224 383.238 62.1568C380.874 69.6781 378.66 77.6019 373.025 98.9835C368.774 115.083 366.938 121.9 365.076 128.289C363.265 134.527 361.203 141.068 360.976 141.319C360.875 141.42 359.718 140.313 358.435 138.854C351.593 131.131 343.67 125.773 334.664 122.705C330.991 121.472 327.143 120.541 320.2 119.233C308.629 117.045 303.397 115.46 298.667 112.693L297.636 112.089L299.825 106.605C302.692 99.4615 305.61 91.3868 312.905 70.1812C319.42 51.2144 322.137 43.5925 324.426 37.5805C325.961 33.5557 328.25 28.0468 328.375 28.0468C328.401 28.0468 329.784 28.6002 331.419 29.2794ZM398.683 71.5647C411.135 82.7335 423.637 96.9208 433.674 111.309L436.038 114.705L436.139 130.679C436.24 152.161 435.56 193.239 435.082 193.717C435.032 193.767 434.026 193.189 432.869 192.434C429.372 190.12 421.775 186.523 411.059 182.12C399.589 177.416 397.35 176.435 392.344 173.92L388.823 172.159L388.973 169.09C389.2 165.04 392.898 69.1247 392.898 67.6406V66.4834L393.728 67.1626C394.155 67.5399 396.394 69.5272 398.683 71.5647ZM229.014 80.8469C235.881 82.2807 240.786 85.576 253.439 97.3736C276.657 119.007 279.977 121.95 285.587 125.673C292.655 130.377 300.504 133.546 309.761 135.458L312.176 135.961L315.722 138.653C328.124 148.111 341.28 160.487 348.499 169.468C351.996 173.87 356.021 180.133 355.87 180.988C355.744 181.617 352.273 183.152 346.738 184.988C336.551 188.384 326.891 190.698 294.291 197.616C254.345 206.093 245.867 208.483 238.422 213.489C235.73 215.275 232.837 217.966 230.875 220.456C230.045 221.513 228.661 223.249 227.781 224.33C223.454 229.663 220.084 237.361 220.084 241.939C220.084 244.982 221.668 254.818 224.989 272.275C226.624 280.753 226.624 280.853 226.875 280.853C227.253 280.853 227.58 279.218 228.511 272.301C228.988 268.628 229.693 264 230.045 261.987C231.403 254.214 233.743 246.039 234.975 244.706C236.761 242.794 240.031 242.215 242.723 243.322C247.025 245.083 255.3 245.335 264.205 244.001C266.595 243.649 266.746 243.649 267.224 244.102C268.834 245.536 273.714 247.8 277.437 248.781C278.342 249.032 279.323 249.46 279.65 249.737L280.204 250.265L279.65 250.844C279.122 251.397 279.122 251.422 279.6 251.95C279.852 252.252 280.732 253.057 281.537 253.736L282.996 255.019L283.549 254.491L284.103 253.988L284.832 254.566C285.537 255.12 285.562 255.22 285.235 255.799C285.059 256.151 284.958 256.503 285.008 256.554C285.059 256.604 286.015 257.233 287.096 257.962C288.681 259.019 289.159 259.245 289.511 259.019C290.065 258.692 291.624 259.597 291.423 260.151C291.222 260.629 296.051 262.918 296.303 262.465C296.554 262.063 298.315 262.666 298.315 263.144C298.315 263.547 298.894 263.798 301.46 264.528C302.919 264.93 303.271 264.955 303.472 264.679C303.623 264.477 303.849 264.352 303.975 264.402C304.126 264.427 304.529 264.528 304.931 264.603C305.308 264.704 305.61 264.93 305.61 265.131C305.61 265.559 305.912 265.66 308.704 266.087C310.792 266.44 310.893 266.414 310.893 265.987C310.893 265.635 311.069 265.509 311.622 265.509C312.654 265.509 313.157 265.735 312.981 266.163C312.805 266.641 313.106 266.691 315.999 266.867L318.439 266.993V266.389C318.439 265.836 318.54 265.76 319.445 265.76C320.326 265.76 320.452 265.836 320.452 266.364C320.452 266.943 320.452 266.943 322.917 266.842C325.935 266.716 325.961 266.691 325.81 265.936C325.709 265.408 325.81 265.308 326.489 265.157C327.822 264.905 327.998 264.955 327.998 265.66C327.998 266.314 328.023 266.339 329.382 266.163C330.136 266.087 331.344 265.886 332.048 265.735C333.281 265.459 333.331 265.433 333.18 264.729C333.029 263.924 333.079 263.874 334.236 263.622C334.991 263.471 335.067 263.522 335.318 264.201L335.57 264.981L336.601 264.603C337.154 264.402 338.286 263.949 339.091 263.597C340.399 262.993 340.55 262.868 340.425 262.339C340.299 261.861 340.425 261.685 341.129 261.409C341.833 261.107 342.009 261.107 342.361 261.383C342.689 261.685 342.99 261.585 344.5 260.578C345.456 259.95 346.588 259.094 346.99 258.692C347.418 258.315 348.927 257.107 350.386 256.025C353.832 253.485 359.844 247.473 363.517 242.869C365.102 240.857 368.145 236.782 370.258 233.814C377.754 223.299 379.062 221.739 381.377 220.859C382.886 220.306 384.823 220.431 386.458 221.236C389.2 222.544 392.571 226.619 394.633 231.097C396.394 234.87 399.061 243.976 400.067 249.661C400.645 252.856 400.847 261.71 400.444 265.685C399.186 278.137 394.457 294.865 386.106 316.246C384.999 319.089 384.119 321.453 384.144 321.504C384.295 321.629 389.225 314.687 392.395 309.932C395.841 304.75 399.715 298.411 402.834 292.802C406.959 285.431 413.449 271.873 415.914 265.559C416.292 264.578 416.669 263.798 416.719 263.849C416.77 263.899 417.046 265.131 417.298 266.565C420.669 285.205 418.078 307.517 410.632 324.195C409.676 326.283 409.349 327.314 409.5 327.541C409.902 327.994 399.513 348.621 387.54 371.159C377.83 389.472 366.56 410.124 364.573 413.294C357.203 424.991 346.915 433.342 333.432 438.549C330.363 439.757 328.853 440.109 323.973 440.763C319.32 441.392 307.396 441.392 303.849 440.763C293.385 438.927 287.172 435.631 280.908 428.538C279.248 426.651 276.405 423.632 274.594 421.796L271.324 418.476L271.978 418.174C272.532 417.922 272.833 417.973 274.016 418.551C275.424 419.23 277.386 420.991 283.977 427.38C289.436 432.688 292.178 434.65 295.548 435.656C298.139 436.436 301.46 436.839 306.113 436.99C316.955 437.317 327.847 435.279 335.922 431.405C338.01 430.399 342.839 427.431 342.839 427.129C342.839 427.079 342.236 427.38 341.531 427.858C334.086 432.588 322.539 435.153 310.39 434.701C304 434.474 298.013 433.418 295.171 431.984C293.133 430.952 289.184 427.255 285.662 423.079L285.21 422.526L286.794 422.928C289.31 423.582 295.724 423.481 299.02 422.777C303.07 421.897 307.421 420.362 311.27 418.45C315.295 416.463 317.986 414.476 319.018 412.715C320.527 410.149 323.168 400.364 326.212 386.252C326.438 385.145 326.438 385.145 326.036 385.749C320.955 393.22 313.584 400.565 306.239 405.496C295.724 412.514 285.335 413.57 268.079 409.319C265.513 408.69 264.18 408.212 262.797 407.407C260.658 406.175 257.288 403.81 254.923 401.848C253.137 400.389 245.037 391.786 245.44 391.786C245.943 391.786 254.345 395.333 256.936 396.641C266.067 401.245 275.123 403.358 281.084 402.251C289.058 400.767 305.032 394.981 316.804 389.296L320.829 387.359L323.671 384.064C327.646 379.435 329.633 377.825 332.274 377.171L333.909 376.744L332.526 376.568C329.759 376.241 327.696 377.071 322.087 380.819C319.722 382.404 317.559 383.661 316.804 383.888C311.698 385.397 294.517 387.686 283.826 388.265C277.588 388.592 276.732 388.893 272.28 392.289C270.67 393.522 269.387 394.302 268.809 394.402C267.4 394.654 264.432 393.824 254.395 390.327C246.672 387.636 244.584 387.208 242.321 387.887C241.868 388.038 241.189 387.258 237.34 382.227C234.9 379.008 232.938 376.341 232.988 376.291C233.038 376.215 233.869 376.366 234.824 376.618C236.183 376.97 237.591 377.071 241.465 377.046C246.295 377.046 246.421 377.02 249.766 376.14C255.2 374.681 258.872 373.096 263.602 370.128C267.274 367.839 270.62 366.405 279.198 363.487C287.977 360.519 290.14 359.714 291.423 358.959C293.964 357.475 297.083 352.922 298.29 348.922C299.372 345.426 298.793 342.131 296.957 340.973C295.775 340.269 295.599 340.345 296.429 341.225C297.41 342.231 297.536 343.866 296.806 345.803C295.75 348.646 292.63 352.645 290.241 354.23C289.612 354.633 287.348 355.312 283.197 356.343C275.575 358.205 271.852 359.311 268.129 360.77C264.708 362.104 262.948 363.059 259.325 365.499C253.665 369.298 246.547 372.342 241.063 373.272C235.629 374.228 232.661 374.052 226.649 372.518C224.788 372.04 223.253 371.688 223.203 371.738C223.178 371.763 224.511 374.279 226.171 377.297L229.24 382.781L239.428 391.334C246.27 397.069 249.792 400.188 250.093 400.767C250.672 401.848 251.2 402.2 243.603 396.717C218.373 378.555 196.363 359.714 181.094 343.237C170.881 332.194 157.674 315.944 148.593 303.241C137.576 287.821 129.249 273.231 126.18 263.949C125.526 262.037 124.747 258.642 124.747 257.837C124.747 257.183 126.382 258.591 131.211 263.421L135.538 267.773L136.041 269.886C139.186 283.042 158.177 309.63 181.572 333.553C190.225 342.382 195.985 347.765 196.841 347.765C197.721 347.765 195.633 344.998 189.697 338.257C175.358 322.007 163.485 306.134 154.681 291.544C151.914 286.966 146.757 277.13 146.984 276.904C147.034 276.829 147.336 276.904 147.612 277.055C148.065 277.306 148.191 277.231 148.568 276.476L149.021 275.621L149.952 275.998C150.807 276.325 150.857 276.426 150.631 276.979C150.203 278.162 150.329 278.287 152.241 278.69C156.039 279.495 155.687 279.52 155.687 278.464C155.687 277.709 155.763 277.558 156.09 277.684C156.316 277.759 156.769 277.835 157.096 277.835C157.624 277.835 157.7 277.96 157.7 278.715C157.7 279.721 157.624 279.696 161.146 279.419C163.133 279.269 163.208 279.243 163.083 278.715C162.982 278.287 163.083 278.111 163.535 277.986C164.667 277.684 165.246 277.81 165.246 278.338C165.246 278.615 165.397 278.841 165.573 278.841C166.101 278.841 170.076 277.508 170.478 277.181C170.529 277.156 170.453 276.879 170.302 276.602C170.051 276.149 170.126 276.024 171.006 275.571C171.937 275.118 172.038 275.093 172.239 275.495C172.44 275.847 172.616 275.797 173.597 274.992C174.855 273.961 176.314 272.225 176.314 271.772C176.314 271.37 177.32 270.288 177.673 270.288C178.025 270.288 180.641 266.616 180.691 266.062C180.767 265.282 181.421 264.251 181.823 264.251C182.049 264.226 182.804 263.295 183.534 262.113L184.842 259.975L184.137 259.572C183.483 259.195 183.433 259.044 183.559 258.113C183.609 257.535 183.71 257.057 183.735 257.006C183.785 256.956 184.238 257.183 184.791 257.51C185.672 258.038 185.948 258.088 188.137 257.937C189.445 257.862 190.527 257.811 190.552 257.811C190.577 257.837 202.576 287.117 208.286 301.153L212.009 310.259L212.764 316.246C213.191 319.541 214.097 327.264 214.801 333.427C217.166 354.306 217.82 358.481 219.153 361.6C220.385 364.443 222.046 367.26 223.303 368.694C225.19 370.757 225.593 370.229 224.989 366.455C224.461 363.21 222.549 353.601 220.184 342.483C219.128 337.578 217.845 330.886 217.317 327.641C216.159 320.573 215.002 314.611 214.147 311.165C213.795 309.781 209.997 297.883 205.695 284.752C200.287 268.175 197.822 260.327 197.696 259.119C197.545 257.862 197.193 256.805 196.337 255.07C195.709 253.761 195.18 252.579 195.18 252.453C195.18 252.303 195.08 252.202 194.954 252.227C194.853 252.277 193.948 251.271 192.967 250.039C191.986 248.781 190.024 246.416 188.64 244.756C187.231 243.096 185.395 240.756 184.565 239.549C183.735 238.316 182.502 236.883 181.848 236.329C176.792 232.103 167.661 229.009 148.141 224.884C124.671 219.953 118.709 218.57 111.54 216.331C105.579 214.47 101.755 212.985 97.7303 210.948L93.9571 209.036L89.4544 199.226C86.9137 193.717 84.7504 188.636 84.4989 187.629C82.0085 177.869 79.1409 148.212 78.4365 124.591L78.1347 115.058L79.3673 113.246C80.952 110.932 84.8007 107.083 87.8948 104.769C89.228 103.763 90.3348 102.983 90.3851 103.033C90.4354 103.084 90.3096 105.046 90.1336 107.41C88.9261 123.585 89.228 145.897 90.9134 161.619C92.473 175.957 95.0639 187.076 98.4598 193.817C99.6421 196.132 101.654 198.899 102.912 199.93C105.579 202.093 113.88 205.414 122.105 207.627C126.357 208.759 129.979 209.539 138.33 211.049C142.556 211.828 146.631 212.608 147.386 212.809C148.141 213.011 148.795 213.136 148.845 213.086C149.021 212.885 140.871 209.061 133.551 205.892C116.32 198.446 110.207 194.723 108.27 190.472C106.208 186.019 103.34 170.323 102.107 156.966C99.8936 133.094 101.277 112.14 106.006 97.4994L106.912 94.7072L109.729 93.8519C114.634 92.3175 118.408 91.5125 124.118 90.7076C128.444 90.1039 130.91 89.9278 137.701 89.802C144.971 89.6762 147.763 89.3241 176.188 85.2741C197.595 82.2052 207.607 80.9727 215.933 80.3689C220.058 80.0419 226.347 80.2935 229.014 80.8469ZM73.481 108.165C73.1289 110.857 73.0534 113.749 73.0534 124.767C73.0534 139.684 73.4056 146.099 74.9652 160.361C80.9772 215.4 98.4095 273.055 123.489 320.85C138.28 349.023 153.423 371.637 173.698 395.811C182.905 406.804 196.086 420.488 208.135 431.606C215.983 438.826 228.561 449.341 236.812 455.554C240.283 458.145 243.276 460.459 243.478 460.66C243.679 460.862 240.736 458.95 236.937 456.409C227.228 449.944 217.216 442.398 208.512 435.078C195.055 423.758 181.546 410.728 171.585 399.459C165.472 392.591 163.712 390.478 158.177 383.535C119.288 334.836 91.7686 274.439 78.8642 209.338C72.3239 176.435 69.8336 143.332 71.9466 117.724C72.3491 112.643 73.5313 104.543 73.808 104.819C73.8583 104.87 73.7326 106.379 73.481 108.165ZM59.7716 127.912C59.3691 137.118 60.0735 155.708 61.3564 169.92C64.5007 204.357 71.3429 240.605 81.103 274.313C93.6049 317.479 110.408 356.117 131.991 391.283C141.122 406.125 155.058 425.242 166.227 438.197C172.918 445.945 185.873 459.352 195.18 468.156C198.551 471.326 198.476 471.276 192.665 466.446C161.775 440.687 136.569 409.797 115.062 371.285C111.44 364.82 103.918 350.029 101.101 343.866C84.6749 307.87 72.827 269.634 65.4063 228.657C58.7906 192.233 56.3757 154.198 58.866 126.402C59.0421 124.465 59.2937 123.057 59.5201 122.705C59.7465 122.378 59.9477 122.151 59.9729 122.176C59.998 122.227 59.8974 124.792 59.7716 127.912ZM451.131 141.118C458.25 155.708 463.608 170.373 467.608 186.271L468.639 190.346L463.432 221.84C460.564 239.147 458.2 253.334 458.149 253.384C458.124 253.434 457.495 253.082 456.741 252.579C456.011 252.101 454.628 251.271 453.647 250.743L451.886 249.787L449.572 193.314C448.314 162.248 447.257 136.112 447.257 135.207L447.232 133.571L447.911 134.703C448.264 135.332 449.723 138.2 451.131 141.118ZM44.729 177.14C46.9426 223.601 54.64 277.91 64.7774 318.46C73.2295 352.243 81.8576 373.297 95.6676 393.899C109.075 413.872 127.136 432.26 148.141 447.328C150.153 448.762 151.838 449.995 151.914 450.07C152.643 450.749 139.009 443.958 133.928 441.09C127.816 437.644 121.703 432.663 112.823 423.985C83.9455 395.685 63.6958 358.154 51.7975 310.838C43.6473 278.388 39.698 239.599 40.7042 201.892C41.157 185.29 41.9117 173.87 43.5719 158.852L44.1253 153.695L44.3014 162.424C44.3768 167.254 44.5781 173.87 44.729 177.14ZM31.2963 164.663C28.8814 180.309 27.1206 198.295 26.3911 214.973C26.0641 222.569 26.0641 242.869 26.3911 250.039C28.2526 290.563 35.6229 325.025 49.2066 356.947C49.9864 358.733 50.8668 360.77 51.219 361.424C52.5019 364.015 51.5208 362.707 49.106 358.657C38.9182 341.627 31.2711 324.12 25.7622 305.254C12.8075 260.956 13.7382 212.784 28.3532 169.166C29.9631 164.386 32.0006 158.827 32.1013 158.953C32.1264 158.978 31.7742 161.544 31.2963 164.663ZM359.869 187.453C359.744 190.145 359.014 192.836 357.555 196.006C356.926 197.339 356.448 197.993 355.643 198.622C351.669 201.54 339.871 205.54 321.961 210.042C319.395 210.696 310.692 212.784 302.592 214.721C286.467 218.57 278.669 220.607 275.877 221.714C272.406 223.073 269.186 223.349 265.01 222.62C263.3 222.318 257.187 220.482 251.527 218.57C250.37 218.167 260.985 213.061 271.777 208.785C276.909 206.747 277.311 206.646 285.486 204.886C305.535 200.634 316.704 198.22 322.338 196.937C340.852 192.685 350.663 189.793 356.549 186.749C358.36 185.818 359.869 185.064 359.92 185.038C359.97 185.038 359.945 186.12 359.869 187.453ZM473.494 222.242C476.085 252.604 472.488 283.419 463.029 312.297C461.118 318.133 456.565 330.283 456.539 329.578C456.539 329.478 456.766 327.415 457.043 325C459.005 307.87 460.715 287.997 461.319 275.571C461.596 269.961 461.621 269.685 466.627 239.851C469.368 223.324 471.708 209.514 471.808 209.162C472.01 208.407 472.94 215.576 473.494 222.242ZM354.461 213.992C355.316 214.369 355.442 214.57 356.046 216.532C356.423 217.715 356.675 218.872 356.624 219.098C356.524 219.702 347.015 225.16 340.701 228.28C329.885 233.612 324.652 235.046 313.408 235.801C301.108 236.631 287.624 236.304 278.191 234.92C274.795 234.417 273.16 234.065 273.16 233.839C273.16 233.462 276.028 230.493 277.462 229.386C281.612 226.192 287.046 224.154 297.058 222.016C315.949 217.991 332.199 215.048 340.827 214.067C342.689 213.866 344.625 213.665 345.103 213.589C345.581 213.539 347.694 213.514 349.757 213.539C352.6 213.589 353.757 213.69 354.461 213.992ZM357.102 223.852C356.876 226.519 356.499 227.55 354.813 230.166C351.568 235.147 345.355 239.851 338.387 242.593C326.891 247.146 306.943 248.932 290.039 246.894C282.77 246.039 276.179 244.404 273.06 242.668C271.098 241.587 270.092 238.895 270.972 237.159C271.651 235.876 271.777 235.851 274.846 236.455C286.719 238.895 313.106 238.945 324.753 236.581C331.62 235.172 341.707 230.669 353.178 223.903C355.165 222.72 356.901 221.764 357.027 221.764C357.153 221.739 357.178 222.645 357.102 223.852ZM152.543 240.656C154.756 243.071 156.945 246.316 156.945 247.221C156.945 247.473 125.954 247.674 123.388 247.448L120.646 247.221L119.238 245.611C118.458 244.731 117.074 243.196 116.119 242.215L114.408 240.429L117.251 240.53C119.263 240.631 121.98 240.48 126.633 240.002C135.186 239.121 138.557 238.92 145.298 238.87L150.857 238.845L152.543 240.656ZM134.557 249.611C164.064 249.41 167.233 249.51 173.522 250.693C177.748 251.498 182.2 253.284 183.433 254.642C183.785 255.044 183.835 255.246 183.609 255.724C183.332 256.327 183.257 256.327 179.886 256.352C176.063 256.378 172.239 256.956 160.592 259.22C152.04 260.905 150.631 261.056 146.556 260.729C140.795 260.277 136.519 259.421 128.545 257.107C124.244 255.875 124.118 255.799 122.734 253.082C122.03 251.674 121.753 249.988 122.156 249.561C122.281 249.46 122.684 249.435 123.112 249.535C123.514 249.611 128.671 249.636 134.557 249.611ZM231.605 404.464C232.611 404.993 234.648 407.231 238.698 412.288C243.654 418.476 246.773 421.947 251.175 426.248C262.444 437.216 275.424 445.039 291.046 450.221C299.548 453.038 311.899 455.504 320.452 456.057C321.76 456.158 323.017 456.283 323.219 456.359C323.671 456.535 315.722 459.227 309.258 461.113C296.303 464.886 282.141 467.653 269.312 468.936C266.117 469.238 264.708 469.288 264.407 469.112C263.828 468.76 258.872 462.924 253.967 456.812C238.849 437.996 229.793 423.18 227.756 413.847C227.152 411.156 227.328 407.684 228.108 406.175C229.139 404.137 230.095 403.685 231.605 404.464Z" fill="white"/>
    <path d="M150.833 214.218C151.009 214.394 151.21 214.47 151.285 214.394C151.361 214.319 151.235 214.168 150.984 214.092C150.631 213.941 150.606 213.966 150.833 214.218Z" fill="white"/>
  </g>
  <defs>
    <filter id="filter0_d" x="0" y="0" width="490.969" height="490.82" filterUnits="userSpaceOnUse" color-interpolation-filters="sRGB">
      <feFlood flood-opacity="0" result="BackgroundImageFix"/>
      <feColorMatrix in="SourceAlpha" type="matrix" values="0 0 0 0 0 0 0 0 0 0 0 0 0 0 0 0 0 0 127 0"/>
      <feOffset dy="4"/>
      <feGaussianBlur stdDeviation="2"/>
      <feColorMatrix type="matrix" values="0 0 0 0 0 0 0 0 0 0 0 0 0 0 0 0 0 0 0.25 0"/>
      <feBlend mode="normal" in2="BackgroundImageFix" result="effect1_dropShadow"/>
      <feBlend mode="normal" in="SourceGraphic" in2="effect1_dropShadow" result="shape"/>
    </filter>
  </defs>
</svg>
