<svg width="241" height="249" viewBox="0 0 241 249" fill="none" xmlns="http://www.w3.org/2000/svg">
<g clip-path="url(#clip0)" filter="url(#filter0_d)">
<path d="M154.658 40.9833C139.852 40.9833 127.807 53.0287 127.807 67.8345C127.807 82.6403 139.852 94.6857 154.658 94.6857C169.464 94.6857 181.509 82.6403 181.509 67.8345C181.509 53.0287 169.464 40.9833 154.658 40.9833ZM149.659 72.8279C145.48 68.6471 147.99 61.4331 153.96 60.8014C158.253 60.408 161.724 63.7837 161.724 67.835C161.724 74.0602 154.132 77.3059 149.659 72.8279Z" fill="white"/>
<path d="M198.68 118.312C213.485 105.502 222.671 86.3637 221.986 65.1451C220.841 29.7134 192.042 1.03305 156.606 0.0277757C118.576 -1.05098 87.2946 29.5716 87.2946 67.3634C87.2946 100.802 111.787 128.624 143.772 133.843C143.205 139.615 142.532 145.294 141.746 150.837C137.452 148.538 132.837 146.947 128.089 146.096C113.822 143.54 99.6909 154.086 99.6409 169.936C99.6296 173.508 97.0024 176.641 93.4571 177.07C89.1605 177.59 85.5087 174.25 85.5087 170.058C85.5087 158.476 89.3004 147.769 95.7004 139.097C76.1476 129.073 51.5528 132.167 34.7365 148.557C13.7285 169.033 13.7219 201.884 34.7365 222.367C51.7879 238.986 77.0007 242.014 96.7664 231.271C102.308 234.289 109.643 236.404 115.886 237.479C127.457 239.435 143.642 241 157.988 241C177.063 241 192.046 238.381 202.602 233.191C209.951 229.577 214.58 221.951 214.397 213.765C213.512 173.294 205.687 140.19 198.68 118.312V118.312ZM154.658 108.818C132.06 108.818 113.675 90.4328 113.675 67.8345C113.675 45.2362 132.06 26.8511 154.658 26.8511C177.256 26.8511 195.641 45.2362 195.641 67.8345C195.641 90.4328 177.256 108.818 154.658 108.818Z" fill="white"/>
</g>
<defs>
<filter id="filter0_d" x="-4" y="0" width="249" height="249" filterUnits="userSpaceOnUse" color-interpolation-filters="sRGB">
<feFlood flood-opacity="0" result="BackgroundImageFix"/>
<feColorMatrix in="SourceAlpha" type="matrix" values="0 0 0 0 0 0 0 0 0 0 0 0 0 0 0 0 0 0 127 0"/>
<feOffset dy="4"/>
<feGaussianBlur stdDeviation="2"/>
<feColorMatrix type="matrix" values="0 0 0 0 0 0 0 0 0 0 0 0 0 0 0 0 0 0 0.25 0"/>
<feBlend mode="normal" in2="BackgroundImageFix" result="effect1_dropShadow"/>
<feBlend mode="normal" in="SourceGraphic" in2="effect1_dropShadow" result="shape"/>
</filter>
<clipPath id="clip0">
<rect width="241" height="241" fill="white"/>
</clipPath>
</defs>
</svg>
